<svg xmlns="http://www.w3.org/2000/svg" width="722.499" height="503.991" viewBox="0 0 722.499 503.991">
    <defs>
        <style>
            .cls-1{fill:#fafaff;opacity:.36}.cls-2{fill:#474059}.cls-17,.cls-3,.cls-8{fill:#fff}.cls-4{fill:#c0bccf}.cls-17,.cls-5{opacity:.1}.cls-6{fill:#6c63ff}.cls-20,.cls-7{fill:none;stroke-miterlimit:10}.cls-7{stroke:#535461;stroke-width:2px}.cls-8{opacity:.5}.cls-9{fill:#e8eaf1}.cls-10{fill:url(#linear-gradient)}.cls-11{fill:#d6e6f9}.cls-12{fill:#5f546f}.cls-13{fill:#ffced8}.cls-14{fill:#bc8387}.cls-15{fill:#ae767a}.cls-16{fill:#cb919b}.cls-18{fill:#5a5773}.cls-19{opacity:.2}.cls-20{stroke:#6c63ff}
        </style>
        <linearGradient id="linear-gradient" x1=".5" x2=".5" y1="1" gradientUnits="objectBoundingBox">
            <stop offset="0" stop-color="gray" stop-opacity=".251"/>
            <stop offset=".54" stop-color="gray" stop-opacity=".122"/>
            <stop offset="1" stop-color="gray" stop-opacity=".102"/>
        </linearGradient>
    </defs>
    <g id="undraw_social_networking_nqk4" transform="translate(.066 .009)">
        <path id="Trazado_1445" d="M721.134 350.9c-25.106 34.449-16.821 83.622-2.309 122.8 4.861 13.114 10.382 26.985 7.862 41.253-3.078 17.443-17.545 30.512-32.583 37.63-27.414 12.973-59.8 10.9-84.321-5.444-21.162-14.108-36.059-37.553-57.631-50.988-36.1-22.477-82.974-12.434-123.157 4.726-28.428 12.139-59.568 27.774-87.271 16.564-19.495-7.888-32.622-27.966-39.528-49.429-3.335-10.363-5.669-21.611-12.312-29.723-3.95-4.822-9.17-8.183-14.538-10.991-48.987-25.651-112-9.619-159.491-38.239-32.064-19.328-52.02-56.836-60.312-96.268s-6.24-81.057-2.937-121.97c2.347-29.075 6.06-60.145 23.541-82.994 18.488-24.163 49.474-33.77 77.184-29.98s52.546 19.2 74.285 37.54c27.171 22.926 52.187 51.7 86 60.4 23.028 5.925 47.493 1.731 71.432-.122 40.016-3.091 79.89.468 119.521 4.489 37.938 3.848 76.138 8.144 112.069 20.758 25.427 8.927 45.582 25.8 69.521 37.329 15.6 7.516 32.769 9.26 47.454 18.969 18.122 11.96 34.5 33.147 29.184 58.574-5.02 24.153-28.337 36.831-41.663 55.116z" class="cls-1" data-name="Trazado 1445" transform="translate(-41.381 -57.05)"/>
        <rect id="Rectángulo_137" width="131.756" height="88.521" class="cls-2" data-name="Rectángulo 137" rx="9.61" transform="translate(244.077 101.902)"/>
        <path id="Rectángulo_138" d="M0 0h125.933v72.316H0z" class="cls-3" data-name="Rectángulo 138" transform="translate(246.848 112.239)"/>
        <ellipse id="Elipse_42" cx="1.109" cy="1.199" class="cls-3" data-name="Elipse 42" rx="1.109" ry="1.199" transform="translate(308.705 107.301)"/>
        <path id="Rectángulo_139" d="M0 0h23.086v24.368H0z" class="cls-2" data-name="Rectángulo 139" transform="translate(298.066 187.217)"/>
        <path id="Trazado_1446" d="M459.688 326.95H487.9a3.848 3.848 0 0 1 3.848 3.848H455.84a3.848 3.848 0 0 1 3.848-3.848z" class="cls-2" data-name="Trazado 1446" transform="translate(-163.545 -117.289)"/>
        <path id="Rectángulo_140" d="M0 0h94.909v32.705H0z" class="cls-4" data-name="Rectángulo 140" transform="translate(149.291 230.182)"/>
        <path id="Rectángulo_141" d="M0 0h20.521v178.274H0z" class="cls-4" data-name="Rectángulo 141" transform="translate(536.62 214.15)"/>
        <path id="Rectángulo_142" d="M0 0h94.909v1.924H0z" class="cls-5" data-name="Rectángulo 142" transform="translate(149.291 230.182)"/>
        <path id="Rectángulo_143" d="M0 0h20.521v17.956H0z" class="cls-5" data-name="Rectángulo 143" transform="translate(536.62 214.15)"/>
        <path id="Rectángulo_144" d="M0 0h94.909v32.705H0z" class="cls-4" data-name="Rectángulo 144" transform="translate(149.291 261.605)"/>
        <circle id="Elipse_43" cx="5.771" cy="5.771" r="5.771" class="cls-6" data-name="Elipse 43" transform="translate(190.974 271.865)"/>
        <circle id="Elipse_44" cx="5.771" cy="5.771" r="5.771" class="cls-6" data-name="Elipse 44" transform="translate(190.974 240.443)"/>
        <path id="Rectángulo_145" d="M0 0h94.909v32.705H0z" class="cls-4" data-name="Rectángulo 145" transform="translate(149.291 294.31)"/>
        <circle id="Elipse_45" cx="5.771" cy="5.771" r="5.771" class="cls-6" data-name="Elipse 45" transform="translate(190.974 303.929)"/>
        <path id="Rectángulo_146" d="M0 0h94.909v32.705H0z" class="cls-4" data-name="Rectángulo 146" transform="translate(149.291 327.015)"/>
        <circle id="Elipse_46" cx="5.771" cy="5.771" r="5.771" class="cls-6" data-name="Elipse 46" transform="translate(190.974 336.634)"/>
        <path id="Rectángulo_147" d="M0 0h94.909v32.705H0z" class="cls-4" data-name="Rectángulo 147" transform="translate(149.291 359.72)"/>
        <circle id="Elipse_47" cx="5.771" cy="5.771" r="5.771" class="cls-6" data-name="Elipse 47" transform="translate(190.974 369.339)"/>
        <path id="Rectángulo_148" d="M0 0h94.909v2.565H0z" class="cls-5" data-name="Rectángulo 148" transform="translate(149.291 292.386)"/>
        <path id="Rectángulo_149" d="M0 0h94.909v2.565H0z" class="cls-5" data-name="Rectángulo 149" transform="translate(149.291 260.322)"/>
        <path id="Rectángulo_150" d="M0 0h94.909v2.565H0z" class="cls-5" data-name="Rectángulo 150" transform="translate(149.291 325.091)"/>
        <path id="Rectángulo_151" d="M0 0h94.909v2.565H0z" class="cls-5" data-name="Rectángulo 151" transform="translate(149.291 357.796)"/>
        <path id="Trazado_1447" d="M152.925 530.753s-2.116-62.691-36.033-98.115a95.028 95.028 0 0 1-26.062-54.175 159.846 159.846 0 0 1-.8-29.223" class="cls-7" data-name="Trazado 1447" transform="translate(-55.725 -161.869)"/>
        <path id="Trazado_1448" d="M56.708 304.433c2.321 7 21.726 23.086 21.726 23.086s5.945-24.5 3.623-31.5a13.354 13.354 0 0 0-25.35 8.407z" class="cls-6" data-name="Trazado 1448" transform="translate(-43.643 -139.494)"/>
        <path id="Trazado_1449" d="M41.652 372.255c5.771 4.617 30.781 7.58 30.781 7.58s-8.337-23.8-14.108-28.408a13.355 13.355 0 1 0-16.712 20.835z" class="cls-6" data-name="Trazado 1449" transform="translate(-36.68 -161.6)"/>
        <path id="Trazado_1450" d="M73.791 473.539c7.3 1.077 30.4-8.978 30.4-8.978S84.988 448.2 77.7 447.119a13.354 13.354 0 1 0-3.905 26.421z" class="cls-6" data-name="Trazado 1450" transform="translate(-45.926 -196.929)"/>
        <path id="Trazado_1451" d="M119.535 545.57c7.009 2.3 31.487-3.732 31.487-3.732s-16.167-19.347-23.176-21.643a13.355 13.355 0 0 0-8.337 25.375z" class="cls-6" data-name="Trazado 1451" transform="translate(-63.12 -222.955)"/>
        <path id="Trazado_1452" d="M120.32 374.8c-3.405 6.541-25.119 19.354-25.119 19.354s-1.975-25.132 1.43-31.679A13.352 13.352 0 1 1 120.32 374.8z" class="cls-6" data-name="Trazado 1452" transform="translate(-57.492 -164.038)"/>
        <path id="Trazado_1453" d="M169.055 457.536c-5.207 5.226-29.755 10.947-29.755 10.947s5.637-24.574 10.838-29.8a13.352 13.352 0 1 1 18.918 18.847z" class="cls-6" data-name="Trazado 1453" transform="translate(-73.516 -192.545)"/>
        <path id="Trazado_1454" d="M208.629 547.3c-4.245 6.028-27.479 15.82-27.479 15.82s1.4-25.17 5.65-31.2a13.351 13.351 0 1 1 21.8 15.391z" class="cls-6" data-name="Trazado 1454" transform="translate(-88.529 -225.241)"/>
        <path id="Trazado_1455" d="M176.67 536.288s19.238-27.985 15.865-54.316A51.456 51.456 0 0 1 198.614 450a86.572 86.572 0 0 1 9.048-13" class="cls-7" data-name="Trazado 1455" transform="translate(-86.922 -193.351)"/>
        <path id="Trazado_1456" d="M221.684 408.354c-1.238 3.8 2.033 17.045 2.033 17.045s10.472-8.76 11.71-12.55a7.229 7.229 0 0 0-13.743-4.489z" class="cls-6" data-name="Trazado 1456" transform="translate(-102.969 -181.289)"/>
        <path id="Trazado_1457" d="M193.274 433.039c1.02 3.848 10.972 13.2 10.972 13.2s4.027-13.044 3.008-16.9a7.231 7.231 0 1 0-13.98 3.7z" class="cls-6" data-name="Trazado 1457" transform="translate(-92.791 -188.672)"/>
        <path id="Trazado_1458" d="M174.676 487.482c2.828 2.815 16.134 5.861 16.134 5.861s-3.1-13.294-5.938-16.109a7.233 7.233 0 1 0-10.2 10.26z" class="cls-6" data-name="Trazado 1458" transform="translate(-85.441 -207.03)"/>
        <path id="Trazado_1459" d="M171.442 533.613c2.315 3.251 14.916 8.5 14.916 8.5s-.814-13.627-3.129-16.878a7.23 7.23 0 0 0-11.787 8.375z" class="cls-6" data-name="Trazado 1459" transform="translate(-84.567 -223.913)"/>
        <path id="Trazado_1460" d="M223.04 459.554c-3.585 1.757-17.16.346-17.16.346s7.221-11.581 10.812-13.313a7.229 7.229 0 1 1 6.355 12.986z" class="cls-6" data-name="Trazado 1460" transform="translate(-97.4 -196.526)"/>
        <path id="Trazado_1461" d="M218.455 512.422c-3.95.6-16.455-4.777-16.455-4.777s10.357-8.888 14.307-9.491a7.229 7.229 0 1 1 2.174 14.294z" class="cls-6" data-name="Trazado 1461" transform="translate(-96.008 -215.259)"/>
        <path id="Trazado_1462" d="M206.168 563.65c-3.79 1.283-17.058-1.924-17.058-1.924s8.709-10.51 12.5-11.774a7.23 7.23 0 0 1 4.559 13.723z" class="cls-6" data-name="Trazado 1462" transform="translate(-91.384 -233.737)"/>
        <path id="Trazado_1463" d="M221.684 408.354c-1.238 3.8 2.033 17.045 2.033 17.045s10.472-8.76 11.71-12.55a7.229 7.229 0 0 0-13.743-4.489z" class="cls-8" data-name="Trazado 1463" transform="translate(-102.969 -181.289)"/>
        <path id="Trazado_1464" d="M193.274 433.039c1.02 3.848 10.972 13.2 10.972 13.2s4.027-13.044 3.008-16.9a7.231 7.231 0 1 0-13.98 3.7z" class="cls-8" data-name="Trazado 1464" transform="translate(-92.791 -188.672)"/>
        <path id="Trazado_1465" d="M174.676 487.482c2.828 2.815 16.134 5.861 16.134 5.861s-3.1-13.294-5.938-16.109a7.233 7.233 0 1 0-10.2 10.26z" class="cls-8" data-name="Trazado 1465" transform="translate(-85.441 -207.03)"/>
        <path id="Trazado_1466" d="M171.442 533.613c2.315 3.251 14.916 8.5 14.916 8.5s-.814-13.627-3.129-16.878a7.23 7.23 0 0 0-11.787 8.375z" class="cls-8" data-name="Trazado 1466" transform="translate(-84.567 -223.913)"/>
        <path id="Trazado_1467" d="M223.04 459.554c-3.585 1.757-17.16.346-17.16.346s7.221-11.581 10.812-13.313a7.229 7.229 0 1 1 6.355 12.986z" class="cls-8" data-name="Trazado 1467" transform="translate(-97.4 -196.526)"/>
        <path id="Trazado_1468" d="M218.455 512.422c-3.95.6-16.455-4.777-16.455-4.777s10.357-8.888 14.307-9.491a7.229 7.229 0 1 1 2.174 14.294z" class="cls-8" data-name="Trazado 1468" transform="translate(-96.008 -215.259)"/>
        <path id="Trazado_1469" d="M206.168 563.65c-3.79 1.283-17.058-1.924-17.058-1.924s8.709-10.51 12.5-11.774a7.23 7.23 0 0 1 4.559 13.723z" class="cls-8" data-name="Trazado 1469" transform="translate(-91.384 -233.737)"/>
        <path id="Trazado_1470" d="M157.238 606.429h-54.72L88.84 522.98h82.083z" class="cls-2" data-name="Trazado 1470" transform="translate(-31.893 -187.61)"/>
        <path id="Trazado_1471" d="M167.594 522.98l-12.781 77.979H108.77l.9 5.47h54.72l13.685-83.449z" class="cls-5" data-name="Trazado 1471" transform="translate(-39.042 -187.61)"/>
        <path id="Rectángulo_152" d="M0 0h412.339v19.238H0z" class="cls-4" data-name="Rectángulo 152" transform="translate(147.367 211.585)"/>
        <path id="Rectángulo_153" d="M0 0h58.997v62.351H0z" class="cls-9" data-name="Rectángulo 153" transform="translate(249.971 117.241)"/>
        <path id="Rectángulo_154" d="M0 0h56.432v59.639H0z" class="cls-3" data-name="Rectángulo 154" transform="translate(251.253 118.6)"/>
        <path id="Rectángulo_157" d="M0 0h46.172v1.924H0z" class="cls-9" data-name="Rectángulo 157" transform="translate(321.152 121.166)"/>
        <path id="Rectángulo_176" d="M0 0h47.454v8.978H0z" class="cls-9" data-name="Rectángulo 176" transform="translate(256.384 123.089)"/>
        <path id="Rectángulo_177" d="M0 0h47.454v8.978H0z" class="cls-9" data-name="Rectángulo 177" transform="translate(256.384 135.915)"/>
        <path id="Rectángulo_182" d="M0 0h31.422v3.848H0z" class="cls-9" data-name="Rectángulo 182" transform="translate(256.384 164.131)"/>
        <path id="Rectángulo_183" d="M0 0h31.422v3.848H0z" class="cls-9" data-name="Rectángulo 183" transform="translate(256.384 171.826)"/>
        <path id="Rectángulo_178" d="M0 0h14.749v8.978H0z" class="cls-9" data-name="Rectángulo 178" transform="translate(256.384 150.023)"/>
        <path id="Rectángulo_179" d="M0 0h13.467v8.978H0z" class="cls-9" data-name="Rectángulo 179" transform="translate(274.339 150.023)"/>
        <path id="Rectángulo_180" d="M0 0h13.467v8.978H0z" class="cls-9" data-name="Rectángulo 180" transform="translate(290.371 150.023)"/>
        <path id="Rectángulo_181" d="M0 0h13.467v14.108H0z" class="cls-9" data-name="Rectángulo 181" transform="translate(290.371 162.207)"/>
        <path id="Rectángulo_158" d="M0 0h46.172v1.924H0z" class="cls-9" data-name="Rectángulo 158" transform="translate(321.152 126.296)"/>
        <path id="Rectángulo_159" d="M0 0h46.172v1.924H0z" class="cls-9" data-name="Rectángulo 159" transform="translate(321.152 131.426)"/>
        <path id="Rectángulo_160" d="M0 0h46.172v1.924H0z" class="cls-9" data-name="Rectángulo 160" transform="translate(321.152 136.556)"/>
        <path id="Rectángulo_161" d="M0 0h46.172v1.924H0z" class="cls-9" data-name="Rectángulo 161" transform="translate(321.152 141.686)"/>
        <path id="Rectángulo_162" d="M0 0h46.172v1.924H0z" class="cls-9" data-name="Rectángulo 162" transform="translate(321.152 146.817)"/>
        <path id="Rectángulo_163" d="M0 0h46.172v1.924H0z" class="cls-9" data-name="Rectángulo 163" transform="translate(321.152 151.947)"/>
        <path id="Rectángulo_164" d="M0 0h46.172v1.924H0z" class="cls-9" data-name="Rectángulo 164" transform="translate(321.152 157.077)"/>
        <path id="Rectángulo_165" d="M0 0h46.172v1.924H0z" class="cls-9" data-name="Rectángulo 165" transform="translate(321.152 162.207)"/>
        <path id="Rectángulo_166" d="M0 0h46.172v1.924H0z" class="cls-9" data-name="Rectángulo 166" transform="translate(321.152 167.337)"/>
        <path id="Rectángulo_167" d="M0 0h46.172v1.924H0z" class="cls-9" data-name="Rectángulo 167" transform="translate(321.152 172.468)"/>
        <path id="Trazado_1483" d="M691.688 371.352a46.813 46.813 0 0 0 2.732-28.107 239.83 239.83 0 0 1-4.572-34.148c-.731-11-2.334-18.122-4.085-22.74s.673-14.967-9.465-22.772-33.8-20.168-33.8-20.168l2.366-9.664h-.1a9.286 9.286 0 0 0 2.033-.93 8.825 8.825 0 0 0 1.828-1.52c4-3.5 4.059-9.927 5.957-15.044 1.462-3.937 4.2-7.311 6.163-11.043 3.572-6.8 4.406-15.14 1.084-22.053s-11.19-11.883-19.046-10.991a34.225 34.225 0 0 0-7.413 1.994c-5.688 2-10.177-3.662-15.865-1.654-2.854 1.007-13.505 2.1-15.814 5.028a2.629 2.629 0 0 0-1.09 1.475c-.6 2.847 4.611 8.548 8.478 13.1a20.866 20.866 0 0 0-4.758 13.249v.654a21 21 0 0 0 6.381 15.025c-.327 2.86-.814 6.079-1.513 9.375h-.468s-2.706 11.71-11.492 11.71c-2.347 0-5.553-.141-8.978-.34a93.871 93.871 0 0 0-30.672 3.533c-3.424.955-7.2 1.039-10.35-1.238-7.541-5.444-15.66-19.309-16.769-21.239.846-5.624.731-15.923-10.947-17.8-13.691-2.193-12.941 13.672-5.066 23.766a6.284 6.284 0 0 0-.385 1.565c-.673 8.458 7.439 24.073 9.465 26.023s2.078 14.307 16.25 17.584 24.368 4.553 25.01 20.822 14.2 33.18 7.439 52.052c-4.059 11.325-3 17.257-1.507 20.187-.122.385-.237.763-.366 1.154-1.539 4.675-3.45 9.369-5.566 12.184a29.584 29.584 0 0 0-1.417 2.052c-5.5 3.565-11.248 7.554-13.467 9.985-4.733 5.207-2.706 26.023 0 34.481s19.6 59.857 19.6 59.857h.641l.205 1.283.68 4.258a6.347 6.347 0 0 1-.641-.4 1.1 1.1 0 0 0-1.622.436l-3.3 7.375s-13.518-5.842-14.211 7.824v1.568c-.032 7.266 3.969 9.972 7.4 10.947a28.286 28.286 0 0 1 8.811 4.091c3.251 2.334 8.2 4.72 13.832 3.424a13.675 13.675 0 0 1 3.469-.321c2.43.071 6.541-.641 6.413-6.066a10.48 10.48 0 0 0 0-1.283s-2.854-10.985-2.976-16.032a3.752 3.752 0 0 1 .269-1.5 10.726 10.726 0 0 0 .6-4.534 47.591 47.591 0 0 0-.251-4.89.757.757 0 0 0-1.378-.318l-.109.147c-.436-1.443-.943-3.129-1.417-4.72l-.391-1.283h.911s-5.419-31.942-3.392-34.507c1.327-1.7-.814-22.034-2.456-35.911 16.468 1.045 42.715-1.866 60.671-2.764a22.983 22.983 0 0 0 9.805-2.732c-1.622 13.159-4.636 39.458-3.123 41.4 2.026 2.6-3.38 34.481-3.38 34.481h.814l-.295.975h.1c-.5 1.687-1.045 3.5-1.513 5.047l-.109-.147a.757.757 0 0 0-1.379.327 47.525 47.525 0 0 0-.25 4.88 11.622 11.622 0 0 0 .6 4.534 3.745 3.745 0 0 1 .269 1.5c-.122 5.079-2.976 16.032-2.976 16.032a10.529 10.529 0 0 0 0 1.283c-.135 5.451 3.976 6.143 6.413 6.066a13.677 13.677 0 0 1 3.469.321c5.63 1.283 10.581-1.1 13.832-3.424a28.287 28.287 0 0 1 8.811-4.091c3.431-.975 7.432-3.681 7.4-10.947v-1.565c-.712-13.653-14.23-7.811-14.23-7.811l-3.322-7.4a1.1 1.1 0 0 0-1.622-.436 6.321 6.321 0 0 1-.641.4l.891-5.56h.641s16.9-51.4 19.6-59.857 4.733-29.281 0-34.481c-2.238-2.462-8.093-6.515-13.653-10.113a126.763 126.763 0 0 1 13.653 9.465zm-29.188 6.522l-2.148-1.283a10.21 10.21 0 0 0-1.622-2.11 17.1 17.1 0 0 1-1.655-1.86c-1.321-4-6.2-20.521.308-29.043 4.726-6.208 5.085-18.2 4.713-26.113 3.206 15.718 7.7 37.835 8.131 42.375.53 5.67-5.28 14.59-7.727 18.034z" class="cls-10" data-name="Trazado 1483" transform="translate(-206.787 -98.313)"/>
        <path id="Trazado_1484" d="M733.956 654.862l-2.565 16.673L716 668.329s3.206-10.9 3.848-13.467.641 0 .641 0z" class="cls-11" data-name="Trazado 1484" transform="translate(-280.393 -271.095)"/>
        <path id="Trazado_1485" d="M625.956 668.329l-15.391 3.206-1.776-11.543-.789-5.13h13.467s0-2.565.641 0c.231.923.8 2.937 1.43 5.13 1.135 3.887 2.418 8.337 2.418 8.337z" class="cls-11" data-name="Trazado 1485" transform="translate(-241.651 -271.095)"/>
        <path id="Trazado_1486" d="M623.558 659.992h-14.749l-.789-5.13h13.467s0-2.565.641 0c.231.924.795 2.938 1.43 5.13z" class="cls-5" data-name="Trazado 1486" transform="translate(-241.658 -271.095)"/>
        <path id="Trazado_1487" d="M719.79 659.492h14.749l.789-5.13h-13.479s0-2.565-.641 0c-.219.924-.783 2.938-1.418 5.13z" class="cls-5" data-name="Trazado 1487" transform="translate(-281.753 -270.915)"/>
        <path id="Trazado_1488" d="M756.238 340.5s8.337.641 10.26 30.781a245.09 245.09 0 0 0 4.367 33.667 47.8 47.8 0 0 1-2.565 27.677l-8.215 20.1s-15.385-12.825-20.52-12.186c0 0 8.978-12.184 8.337-19.238S737 363.586 737 363.586z" class="cls-11" data-name="Trazado 1488" transform="translate(-287.926 -158.734)"/>
        <path id="Trazado_1489" d="M601.862 489.5s-19.88 12.184-24.368 17.314-2.565 25.651 0 33.988 18.6 59 18.6 59h16.032s-5.13-31.422-3.206-33.988-3.848-48.1-3.848-48.1z" class="cls-12" data-name="Trazado 1489" transform="translate(-229.741 -212.184)"/>
        <path id="Trazado_1490" d="M729.26 489.5s19.88 12.184 24.368 17.314 2.565 25.651 0 33.988-18.6 59-18.6 59H719s5.13-31.422 3.206-33.988 3.848-48.1 3.848-48.1z" class="cls-12" data-name="Trazado 1490" transform="translate(-281.469 -212.184)"/>
        <path id="Trazado_1491" d="M601.862 489.5s-19.88 12.184-24.368 17.314-2.565 25.651 0 33.988 18.6 59 18.6 59h16.032s-5.13-31.422-3.206-33.988-3.848-48.1-3.848-48.1z" class="cls-5" data-name="Trazado 1491" transform="translate(-229.741 -212.184)"/>
        <path id="Trazado_1492" d="M729.26 489.5s19.88 12.184 24.368 17.314 2.565 25.651 0 33.988-18.6 59-18.6 59H719s5.13-31.422 3.206-33.988 3.848-48.1 3.848-48.1z" class="cls-5" data-name="Trazado 1492" transform="translate(-281.469 -212.184)"/>
        <path id="Trazado_1493" d="M664.375 233.949s0 25.01-8.978 37.835 41.042 1.924 41.042 1.924a13.32 13.32 0 0 1-4.81-6.733c-2.642-9.408-3.642-25.978.321-33.026 5.771-10.26-27.575 0-27.575 0z" class="cls-13" data-name="Trazado 1493" transform="translate(-258.266 -118.876)"/>
        <circle id="Elipse_49" cx="21.162" cy="21.162" r="21.162" class="cls-5" data-name="Elipse 49" transform="translate(399.388 89.743)"/>
        <circle id="Elipse_50" cx="21.162" cy="21.162" r="21.162" class="cls-13" data-name="Elipse 50" transform="translate(399.388 89.102)"/>
        <path id="Trazado_1494" d="M675.328 543.045c-22.938 1.013-61.094 5.284-66.878-1.052-9.331-10.216-6.022-19.411-1.206-25.01 1.885-2.2 3.578-5.88 4.951-9.555.462-1.244.891-2.482 1.282-3.662 1.481-4.572 6.413-7.727 11.992-7.727h46.319c5.611 0 10.549 3.206 12 7.779a20.577 20.577 0 0 0 2.95 6 14.52 14.52 0 0 0 2.366 2.565c2.334 1.982 3.848 6.252 4.829 10.953 2.076 9.949-6.697 19.184-18.605 19.709z" class="cls-12" data-name="Trazado 1494" transform="translate(-239.682 -214.53)"/>
        <path id="Trazado_1495" d="M675.328 543.045c-22.938 1.013-61.094 5.284-66.878-1.052-9.331-10.216-6.022-19.411-1.206-25.01 1.885-2.2 3.578-5.88 4.951-9.555.462-1.244.891-2.482 1.282-3.662 1.481-4.572 6.413-7.727 11.992-7.727h46.319c5.611 0 10.549 3.206 12 7.779a20.577 20.577 0 0 0 2.95 6 14.52 14.52 0 0 0 2.366 2.565c2.334 1.982 3.848 6.252 4.829 10.953 2.076 9.949-6.697 19.184-18.605 19.709z" class="cls-5" data-name="Trazado 1495" transform="translate(-239.682 -214.53)"/>
        <path id="Trazado_1496" d="M608.414 672.415c-2.007-.4-7.246-1.558-9.279-3.1a1.02 1.02 0 0 0-1.539.43l-3.142 7.317s-12.826-5.771-13.467 7.7c-.372 7.856 3.617 10.69 7.009 11.69a26.38 26.38 0 0 1 8.381 4.021c3.084 2.3 7.785 4.649 13.12 3.38a12.507 12.507 0 0 1 3.29-.321c2.392.077 6.515-.641 6.06-6.6 0 0-3.848-15.391-2.565-17.956.808-1.616.6-5.771.333-8.632a.712.712 0 0 0-1.283-.327 5.643 5.643 0 0 1-4.944 2.565 8.979 8.979 0 0 1-1.974-.167z" class="cls-5" data-name="Trazado 1496" transform="translate(-231.952 -276.617)"/>
        <path id="Trazado_1497" d="M608.414 673.415c-2.007-.4-7.246-1.558-9.279-3.1a1.02 1.02 0 0 0-1.539.43l-3.142 7.317s-12.826-5.771-13.467 7.7c-.372 7.856 3.617 10.69 7.009 11.69a26.381 26.381 0 0 1 8.381 4.021c3.084 2.3 7.785 4.649 13.12 3.38a12.507 12.507 0 0 1 3.29-.321c2.392.077 6.515-.641 6.06-6.6 0 0-3.848-15.391-2.565-17.956.808-1.616.6-5.771.333-8.632a.712.712 0 0 0-1.283-.327 5.643 5.643 0 0 1-4.944 2.565 8.979 8.979 0 0 1-1.975-.16z" class="cls-14" data-name="Trazado 1497" transform="translate(-231.952 -276.976)"/>
        <path id="Trazado_1498" d="M722.418 672.415c2.007-.4 7.246-1.558 9.279-3.1a1.02 1.02 0 0 1 1.539.43l3.123 7.317s12.825-5.771 13.467 7.7c.372 7.856-3.617 10.69-7.009 11.69a26.382 26.382 0 0 0-8.337 4.034c-3.085 2.3-7.785 4.649-13.12 3.38a12.5 12.5 0 0 0-3.29-.321c-2.392.077-6.515-.641-6.06-6.6 0 0 3.848-15.391 2.565-17.956-.808-1.616-.6-5.771-.333-8.632a.712.712 0 0 1 1.282-.327 5.643 5.643 0 0 0 4.944 2.565 8.978 8.978 0 0 0 1.95-.18z" class="cls-5" data-name="Trazado 1498" transform="translate(-278.949 -276.617)"/>
        <path id="Trazado_1499" d="M722.418 673.415c2.007-.4 7.246-1.558 9.279-3.1a1.02 1.02 0 0 1 1.539.43l3.123 7.317s12.825-5.771 13.467 7.7c.372 7.856-3.617 10.69-7.009 11.69a26.382 26.382 0 0 0-8.337 4.034c-3.085 2.3-7.785 4.649-13.12 3.38a12.508 12.508 0 0 0-3.29-.321c-2.392.077-6.515-.641-6.06-6.6 0 0 3.848-15.391 2.565-17.956-.808-1.616-.6-5.771-.333-8.632a.712.712 0 0 1 1.282-.327 5.643 5.643 0 0 0 4.944 2.565 8.978 8.978 0 0 0 1.95-.173z" class="cls-14" data-name="Trazado 1499" transform="translate(-278.949 -276.976)"/>
        <path id="Trazado_1500" d="M537.941 249.549s5.771-18.6-9.619-21.162-11.543 19.88 0 28.216 9.619-7.054 9.619-7.054z" class="cls-13" data-name="Trazado 1500" transform="translate(-209.427 -118.443)"/>
        <path id="Trazado_1501" d="M689.883 478.483c-17.956 29.5-78.235-3.848-78.235-3.848a6.424 6.424 0 0 1-2.418-3.335c.494-1.558.949-3.117 1.359-4.6a13.236 13.236 0 0 1 12.787-9.7h49.378a13.217 13.217 0 0 1 12.787 9.767 27.962 27.962 0 0 0 3.142 7.529c.636 2.583 1.2 4.187 1.2 4.187z" class="cls-5" data-name="Trazado 1501" transform="translate(-242.092 -200.526)"/>
        <path id="Trazado_1502" d="M619.6 263.189h-3.848s-2.565 11.543-10.9 11.543c-2.225 0-5.265-.135-8.535-.34a85.879 85.879 0 0 0-29.1 3.482c-3.251.943-6.823 1.026-9.818-1.218-7.7-5.771-16.032-21.162-16.032-21.162s-14.749-.641-15.391 7.7 7.054 23.727 8.978 25.651 1.924 14.108 15.391 17.314 23.086 4.489 23.727 20.521 13.467 32.7 7.054 51.3.641 22.445.641 22.445 60.28 33.346 78.235 3.848c0 0-7.054-19.88 0-29.5s3.848-33.346 3.848-33.346l23.086-23.086s.641-14.749-8.978-22.445-32.058-19.882-32.058-19.882l2.245-9.529z" class="cls-11" data-name="Trazado 1502" transform="translate(-212.214 -128.236)"/>
        <path id="Trazado_1503" d="M666.2 217.482c-.487 6.034-.3 12.922 4.168 17.019a17.826 17.826 0 0 0 8.01 3.719 51.17 51.17 0 0 0 9.241 1.366c2.847.154 5.88 0 8.272-1.52 4.9-3.161 4.784-10.19 6.746-15.686 1.385-3.886 3.989-7.2 5.848-10.9 3.386-6.695 4.181-14.922 1.026-21.733s-10.613-11.7-18.065-10.805a31.506 31.506 0 0 0-7.054 1.969c-5.4 1.975-9.651-3.61-15.051-1.635-2.95 1.077-14.672 2.264-15.391 5.771-.853 4.168 10.491 14.563 11.716 18.212 1.614 4.7.534 9.413.534 14.223z" class="cls-5" data-name="Trazado 1503" transform="translate(-258.119 -100.741)"/>
        <path id="Trazado_1504" d="M667.2 216.482c-.487 6.034-.295 12.922 4.168 17.019a17.825 17.825 0 0 0 8.01 3.719 51.169 51.169 0 0 0 9.241 1.366c2.847.154 5.88 0 8.272-1.52 4.9-3.161 4.784-10.19 6.746-15.686 1.385-3.886 3.989-7.2 5.848-10.9 3.386-6.695 4.181-14.922 1.026-21.733s-10.613-11.7-18.065-10.805a31.507 31.507 0 0 0-7.054 1.969c-5.4 1.975-9.651-3.61-15.051-1.635-2.95 1.077-14.672 2.264-15.391 5.771-.853 4.168 10.491 14.563 11.716 18.212 1.614 4.7.534 9.413.534 14.223z" class="cls-15" data-name="Trazado 1504" transform="translate(-258.478 -100.382)"/>
        <path id="Trazado_1505" d="M659.52 280.49s3.848 1.61 14.749 4.816a32.387 32.387 0 0 0 19.238 0" class="cls-5" data-name="Trazado 1505" transform="translate(-260.132 -137.207)"/>
        <path id="Trazado_1506" d="M614.5 423.4s17.956 1.026 23.727 8.721 7.7 10.26 14.749 10.26 29.5 1.283 32.705 2.565" class="cls-5" data-name="Trazado 1506" transform="translate(-243.982 -188.472)"/>
        <path id="Rectángulo_168" d="M0 0h10.722v12.255H0z" class="cls-4" data-name="Rectángulo 168" transform="translate(408.135 429.259)"/>
        <path id="Rectángulo_169" d="M0 0h8.426v62.037H0z" class="cls-16" data-name="Rectángulo 169" transform="translate(475.533 278.38)"/>
        <path id="Rectángulo_170" d="M0 0h18.379v2.296H0z" class="cls-16" data-name="Rectángulo 170" transform="translate(461.745 339.648)"/>
        <path id="Rectángulo_171" d="M0 0h8.426v62.037H0z" class="cls-16" data-name="Rectángulo 171" transform="translate(343.796 278.38)"/>
        <path id="Rectángulo_172" d="M0 0h18.379v2.296H0z" class="cls-16" data-name="Rectángulo 172" transform="translate(345.328 339.648)"/>
        <path id="Rectángulo_173" d="M0 0h17.616v75.061H0z" class="cls-4" data-name="Rectángulo 173" transform="translate(405.832 343.483)"/>
        <path id="Trazado_1507" d="M656.489 475.484c47.454 1.655 49.019-16.526 49.019-16.526l-3.065-50.411c-.763-78.511-45.954-66.943-45.954-66.943s-45.191-11.543-45.954 66.943l-3.065 50.411s1.53 18.18 49.019 16.526z" class="cls-16" data-name="Trazado 1507" transform="translate(-241.461 -158.915)"/>
        <path id="Trazado_1508" d="M656.489 475.484c47.454 1.655 49.019-16.526 49.019-16.526l-3.065-50.411c-.763-78.511-45.954-66.943-45.954-66.943s-45.191-11.543-45.954 66.943l-3.065 50.411s1.53 18.18 49.019 16.526z" class="cls-17" data-name="Trazado 1508" transform="translate(-241.461 -158.915)"/>
        <path id="Trazado_1509" d="M655.777 474.1c45.261 1.578 46.717-15.756 46.717-15.756l-2.918-48.051c-.731-74.83-43.8-63.8-43.8-63.8s-43.068-11.03-43.8 63.8l-2.918 48.051s1.458 17.331 46.719 15.756z" class="cls-16" data-name="Trazado 1509" transform="translate(-242.031 -160.678)"/>
        <rect id="Rectángulo_174" width="19.148" height="32.936" class="cls-4" data-name="Rectángulo 174" rx="9.574" transform="translate(404.306 292.931)"/>
        <path id="Trazado_1510" d="M687.16 705.345v2.674h-17.59v-2.655l1.533-.4h14.551z" class="cls-5" data-name="Trazado 1510" transform="translate(-263.738 -289.475)"/>
        <path id="Trazado_1511" d="M571.508 731.413s-7.663-6.124 64.358-25.273h14.55s62.018 15.3 62.781 25.273h-9.19s-33.7-9.972-49.019-9.972-61.274 1.533-75.029 9.959z" class="cls-4" data-name="Trazado 1511" transform="translate(-228.476 -289.898)"/>
        <path id="Trazado_1512" d="M534.937 419.77h3.238a8.337 8.337 0 0 1 8.337 8.337v3.918H526.6v-3.918a8.337 8.337 0 0 1 8.337-8.337z" class="cls-16" data-name="Trazado 1512" transform="translate(-188.929 -150.585)"/>
        <path id="Trazado_1513" d="M740.337 419.77h3.238a8.337 8.337 0 0 1 8.337 8.337v3.918H732v-3.918a8.337 8.337 0 0 1 8.337-8.337z" class="cls-16" data-name="Trazado 1513" transform="translate(-262.611 -150.585)"/>
        <circle id="Elipse_51" cx="5.361" cy="5.361" r="5.361" class="cls-18" data-name="Elipse 51" transform="translate(341.5 441.514)"/>
        <circle id="Elipse_52" cx="5.361" cy="5.361" r="5.361" class="cls-18" data-name="Elipse 52" transform="translate(408.135 441.514)"/>
        <circle id="Elipse_53" cx="5.361" cy="5.361" r="5.361" class="cls-18" data-name="Elipse 53" transform="translate(475.533 441.514)"/>
        <path id="Rectángulo_175" d="M0 0h17.616v3.065H0z" class="cls-5" data-name="Rectángulo 175" transform="translate(405.832 343.483)"/>
        <path id="Trazado_1514" d="M652.84 583.074h51.3l3.848-7.657c2.3-13.018-6.124-13.787-6.124-13.787h-98.043s-8.426.763-6.124 13.787l3.848 7.657z" class="cls-16" data-name="Trazado 1514" transform="translate(-237.812 -238.059)"/>
        <path id="Trazado_1515" d="M652.84 583.074h51.3l3.848-7.657c2.3-13.018-6.124-13.787-6.124-13.787h-98.043s-8.426.763-6.124 13.787l3.848 7.657z" class="cls-17" data-name="Trazado 1515" transform="translate(-237.812 -238.059)"/>
        <path id="Trazado_1516" d="M652.84 584.785h51.3l3.848-6.567c2.3-11.158-6.124-11.819-6.124-11.819h-98.043s-8.426.641-6.124 11.819l3.848 6.567z" class="cls-16" data-name="Trazado 1516" transform="translate(-237.812 -239.77)"/>
        <path id="Trazado_1517" d="M839.534 357.135s-5.855-1.982-8.67 3.206a9.414 9.414 0 0 0 .122 9.061c1.853 3.347 5.662 7.7 12.89 7.3 6.131-.327 8.163-5 8.721-9.356a9.619 9.619 0 0 0-12.761-10.26z" class="cls-6" data-name="Trazado 1517" transform="translate(-321.202 -164.487)"/>
        <path id="Trazado_1518" d="M832.243 369.691a9.414 9.414 0 0 1-.122-9.061c2.815-5.13 8.67-3.206 8.67-3.206l.3-.109a9.523 9.523 0 0 1 6.881.154 9.53 9.53 0 0 0-8.119-.776l-.3.109s-5.855-1.982-8.67 3.206a9.414 9.414 0 0 0 .122 9.061 14.069 14.069 0 0 0 6.612 6.265 14.512 14.512 0 0 1-5.374-5.643z" class="cls-17" data-name="Trazado 1518" transform="translate(-321.21 -164.339)"/>
        <path id="Trazado_1519" d="M840.3 361.34s2.167 1.706 7.445 0" class="cls-19" data-name="Trazado 1519" transform="translate(-324.983 -166.21)"/>
        <path id="Trazado_1520" d="M839.58 342s3.719 10.081 3.412 12.716l2.943-.308s-4.963-8.837-3.719-12.4z" class="cls-6" data-name="Trazado 1520" transform="translate(-324.724 -159.272)"/>
        <path id="Trazado_1521" d="M839.58 342s3.719 10.081 3.412 12.716l2.943-.308s-4.963-8.837-3.719-12.4z" class="cls-19" data-name="Trazado 1521" transform="translate(-324.724 -159.272)"/>
        <path id="Trazado_1522" d="M856.828 342.471s-5.855-2.995-8.478-.519-3.02 8.8-3.02 8.8 9.549 1.313 11.498-8.281z" class="cls-6" data-name="Trazado 1522" transform="translate(-326.787 -158.903)"/>
        <path id="Trazado_1523" d="M856.828 342.471s-5.855-2.995-8.478-.519-3.02 8.8-3.02 8.8 9.549 1.313 11.498-8.281z" class="cls-17" data-name="Trazado 1523" transform="translate(-326.787 -158.903)"/>
        <path id="Trazado_1524" d="M845.33 351.589s1.539-7.343 11.5-8.279" class="cls-20" data-name="Trazado 1524" transform="translate(-326.787 -159.742)"/>
    </g>
</svg>
