<svg xmlns="http://www.w3.org/2000/svg" id="wikipedia" width="209.964" height="209.964" viewBox="0 0 209.964 209.964">
    <defs>
        <style>
            .cls-1{fill:#e3296f}.cls-2{fill:#1897b6}.cls-3{fill:#fca528}.cls-4{fill:#4bb06e}.cls-5{fill:#64519c}
        </style>
    </defs>
    <g id="Grupo_691" data-name="Grupo 691" transform="translate(37.318 86.528)">
        <g id="Grupo_690" data-name="Grupo 690">
            <path id="Trazado_1984" d="M220.177 211h-24.605a6.151 6.151 0 0 0 0 12.3h3.768l-16.07 48.212L167.2 223.3h3.768a6.151 6.151 0 0 0 0-12.3h-24.606a6.151 6.151 0 0 0 0 12.3h3.768l-16.07 48.212-16.071-48.212h3.768a6.151 6.151 0 1 0 0-12.3H97.151a6.151 6.151 0 0 0 0 12.3h7.869l23.2 69.609a6.151 6.151 0 0 0 11.671 0l18.77-56.308 18.77 56.308a6.151 6.151 0 0 0 11.671 0l23.2-69.609h7.869a6.151 6.151 0 0 0 0-12.3z" class="cls-1" data-name="Trazado 1984" transform="translate(-91 -211)"/>
        </g>
    </g>
    <g id="Grupo_693" data-name="Grupo 693">
        <g id="Grupo_692" data-name="Grupo 692">
            <path id="Trazado_1985" d="M191.51 0H18.454A18.475 18.475 0 0 0 0 18.454V191.51a18.475 18.475 0 0 0 18.454 18.454H191.51a18.475 18.475 0 0 0 18.454-18.454V18.454A18.475 18.475 0 0 0 191.51 0zM12.3 18.454a6.158 6.158 0 0 1 6.154-6.154h117.284v36.91H12.3zM197.661 191.51a6.158 6.158 0 0 1-6.151 6.151H18.454a6.158 6.158 0 0 1-6.154-6.151v-130h185.361zm0-142.3h-49.62V12.3h43.469a6.158 6.158 0 0 1 6.151 6.151z" class="cls-2" data-name="Trazado 1985"/>
        </g>
    </g>
    <g id="Grupo_695" data-name="Grupo 695" transform="translate(24.605 24.605)">
        <g id="Grupo_694" data-name="Grupo 694">
            <path id="Trazado_1986" d="M78.864 60H66.151a6.151 6.151 0 0 0 0 12.3h12.713a6.151 6.151 0 0 0 0-12.3z" class="cls-3" data-name="Trazado 1986" transform="translate(-60 -60)"/>
        </g>
    </g>
    <g id="Grupo_697" data-name="Grupo 697" transform="translate(61.923 24.605)">
        <g id="Grupo_696" data-name="Grupo 696">
            <path id="Trazado_1987" d="M169.454 60h-12.3a6.151 6.151 0 0 0 0 12.3h12.3a6.151 6.151 0 0 0 0-12.3z" class="cls-4" data-name="Trazado 1987" transform="translate(-151 -60)"/>
        </g>
    </g>
    <g id="Grupo_699" data-name="Grupo 699" transform="translate(98.831 24.605)">
        <g id="Grupo_698" data-name="Grupo 698">
            <path id="Trazado_1988" d="M259.454 60h-12.3a6.151 6.151 0 0 0 0 12.3h12.3a6.151 6.151 0 0 0 0-12.3z" class="cls-5" data-name="Trazado 1988" transform="translate(-241 -60)"/>
        </g>
    </g>
</svg>
