<?xml version="1.0" encoding="UTF-8" standalone="no"?>
<svg
   xmlns:dc="http://purl.org/dc/elements/1.1/"
   xmlns:cc="http://creativecommons.org/ns#"
   xmlns:rdf="http://www.w3.org/1999/02/22-rdf-syntax-ns#"
   xmlns:svg="http://www.w3.org/2000/svg"
   xmlns="http://www.w3.org/2000/svg"
   xmlns:sodipodi="http://sodipodi.sourceforge.net/DTD/sodipodi-0.dtd"
   xmlns:inkscape="http://www.inkscape.org/namespaces/inkscape"
   id="wikipedia"
   width="209.964"
   height="209.964"
   viewBox="0 0 209.964 209.964"
   version="1.1"
   sodipodi:docname="icono-proyectos.svg"
   inkscape:version="0.92.4 5da689c313, 2019-01-14">
  <metadata
     id="metadata24">
    <rdf:RDF>
      <cc:Work
         rdf:about="">
        <dc:format>image/svg+xml</dc:format>
        <dc:type
           rdf:resource="http://purl.org/dc/dcmitype/StillImage" />
        <dc:title></dc:title>
      </cc:Work>
    </rdf:RDF>
  </metadata>
  <sodipodi:namedview
     pagecolor="#ffffff"
     bordercolor="#666666"
     borderopacity="1"
     objecttolerance="10"
     gridtolerance="10"
     guidetolerance="10"
     inkscape:pageopacity="0"
     inkscape:pageshadow="2"
     inkscape:window-width="1676"
     inkscape:window-height="999"
     id="namedview22"
     showgrid="false"
     inkscape:zoom="1.1240022"
     inkscape:cx="-61.165912"
     inkscape:cy="137.15471"
     inkscape:window-x="0"
     inkscape:window-y="24"
     inkscape:window-maximized="0"
     inkscape:current-layer="wikipedia" />
  <defs
     id="defs4">
    <style
       id="style2">
            .cls-1{fill:#e3296f}.cls-2{fill:#1897b6}.cls-3{fill:#fca528}.cls-4{fill:#4bb06e}.cls-5{fill:#64519c}
        </style>
  </defs>
  <g
     id="Grupo_693"
     data-name="Grupo 693">
    <g
       id="Grupo_692"
       data-name="Grupo 692">
      <path
         id="Trazado_1985"
         d="M191.51 0H18.454A18.475 18.475 0 0 0 0 18.454V191.51a18.475 18.475 0 0 0 18.454 18.454H191.51a18.475 18.475 0 0 0 18.454-18.454V18.454A18.475 18.475 0 0 0 191.51 0zM12.3 18.454a6.158 6.158 0 0 1 6.154-6.154h117.284v36.91H12.3zM197.661 191.51a6.158 6.158 0 0 1-6.151 6.151H18.454a6.158 6.158 0 0 1-6.154-6.151v-130h185.361zm0-142.3h-49.62V12.3h43.469a6.158 6.158 0 0 1 6.151 6.151z"
         class="cls-2"
         data-name="Trazado 1985" />
    </g>
  </g>
  <g
     id="Grupo_695"
     data-name="Grupo 695"
     transform="translate(24.605 24.605)">
    <g
       id="Grupo_694"
       data-name="Grupo 694">
      <path
         id="Trazado_1986"
         d="M78.864 60H66.151a6.151 6.151 0 0 0 0 12.3h12.713a6.151 6.151 0 0 0 0-12.3z"
         class="cls-3"
         data-name="Trazado 1986"
         transform="translate(-60 -60)" />
    </g>
  </g>
  <g
     id="Grupo_697"
     data-name="Grupo 697"
     transform="translate(61.923 24.605)">
    <g
       id="Grupo_696"
       data-name="Grupo 696">
      <path
         id="Trazado_1987"
         d="M169.454 60h-12.3a6.151 6.151 0 0 0 0 12.3h12.3a6.151 6.151 0 0 0 0-12.3z"
         class="cls-4"
         data-name="Trazado 1987"
         transform="translate(-151 -60)" />
    </g>
  </g>
  <g
     id="Grupo_699"
     data-name="Grupo 699"
     transform="translate(98.831 24.605)">
    <g
       id="Grupo_698"
       data-name="Grupo 698">
      <path
         id="Trazado_1988"
         d="M259.454 60h-12.3a6.151 6.151 0 0 0 0 12.3h12.3a6.151 6.151 0 0 0 0-12.3z"
         class="cls-5"
         data-name="Trazado 1988"
         transform="translate(-241 -60)" />
    </g>
  </g>
  <path
     inkscape:connector-curvature="0"
     id="Trazado_2089"
     d="m 104.97305,152.42101 a 37.232486,37.232486 0 0 0 22.06962,-7.18042 3.9168778,3.9168778 0 0 0 -4.6161,-6.32775 29.61071,29.61071 0 1 1 8.881,-10.32214 3.9168778,3.9168778 0 0 0 6.94945,3.61472 37.491924,37.491924 0 1 0 -33.28397,20.21717 z m 0,0"
     class="cls-2"
     data-name="Trazado 2089"
     style="fill:#e3296f;fill-opacity:1;stroke-width:1.58193767" />
  <path
     inkscape:connector-curvature="0"
     id="Trazado_2090"
     d="m 109.33812,102.79403 -5.98289,5.2204 -2.56591,-2.31754 c -6.367296,-5.793062 -12.737758,-3.36321 -16.592941,0.84792 a 11.73165,11.73165 0 0 0 0.847923,16.59295 l 10.304732,9.30337 a 11.750633,11.750633 0 0 0 15.594746,0.13289 l 13.83879,-12.07019 a 11.749055,11.749055 0 0 0 -15.44603,-17.70822 z m 10.29841,11.80443 -13.83879,12.07335 a 3.9168778,3.9168778 0 0 1 -5.19984,-0.0443 l -10.30473,-9.30337 a 3.8915668,3.8915668 0 0 1 -0.283171,-5.53679 4.0418509,4.0418509 0 0 1 5.536785,-0.28316 l 5.146036,4.64615 a 3.9184597,3.9184597 0 0 0 5.19983,0.0427 l 8.601,-7.50156 a 3.9152959,3.9152959 0 0 1 5.14762,5.90063 z m 0,0"
     class="cls-2"
     data-name="Trazado 2090"
     style="fill:#e3296f;fill-opacity:1;stroke-width:1.58193767" />
  <path
     inkscape:connector-curvature="0"
     id="Trazado_2091"
     d="m 138.98575,156.48342 h -68.0075 a 11.790185,11.790185 0 1 0 0,23.58037 h 68.0075 a 11.790185,11.790185 0 1 0 0,-23.58037 z m 0,15.74819 h -68.0075 a 3.9548476,3.9548476 0 1 1 0,-7.90969 h 68.0075 a 3.9548476,3.9548476 0 1 1 0,7.90969 z m 0,0"
     class="cls-2"
     data-name="Trazado 2091"
     style="fill:#e3296f;fill-opacity:1;stroke-width:1.58193767" />
</svg>
