<?xml version="1.0" encoding="UTF-8" standalone="no"?>
<svg
   xmlns:dc="http://purl.org/dc/elements/1.1/"
   xmlns:cc="http://creativecommons.org/ns#"
   xmlns:rdf="http://www.w3.org/1999/02/22-rdf-syntax-ns#"
   xmlns:svg="http://www.w3.org/2000/svg"
   xmlns="http://www.w3.org/2000/svg"
   xmlns:sodipodi="http://sodipodi.sourceforge.net/DTD/sodipodi-0.dtd"
   xmlns:inkscape="http://www.inkscape.org/namespaces/inkscape"
   id="wikipedia"
   width="209.964"
   height="209.964"
   viewBox="0 0 209.964 209.964"
   version="1.1"
   sodipodi:docname="icono-wikipedia.svg"
   inkscape:version="0.92.4 5da689c313, 2019-01-14">
  <metadata
     id="metadata24">
    <rdf:RDF>
      <cc:Work
         rdf:about="">
        <dc:format>image/svg+xml</dc:format>
        <dc:type
           rdf:resource="http://purl.org/dc/dcmitype/StillImage" />
      </cc:Work>
    </rdf:RDF>
  </metadata>
  <sodipodi:namedview
     pagecolor="#ffffff"
     bordercolor="#666666"
     borderopacity="1"
     objecttolerance="10"
     gridtolerance="10"
     guidetolerance="10"
     inkscape:pageopacity="0"
     inkscape:pageshadow="2"
     inkscape:window-width="1676"
     inkscape:window-height="999"
     id="namedview22"
     showgrid="false"
     inkscape:zoom="1.1240022"
     inkscape:cx="-48.042611"
     inkscape:cy="104.982"
     inkscape:window-x="0"
     inkscape:window-y="24"
     inkscape:window-maximized="0"
     inkscape:current-layer="wikipedia" />
  <defs
     id="defs4">
    <style
       id="style2">
            .cls-1{fill:#e3296f}.cls-2{fill:#1897b6}.cls-3{fill:#fca528}.cls-4{fill:#4bb06e}.cls-5{fill:#64519c}
        </style>
  </defs>
  <g
     id="Grupo_691"
     data-name="Grupo 691"
     transform="matrix(0.85536435,0,0,0.85536435,47.107193,94.527855)">
    <g
       id="Grupo_690"
       data-name="Grupo 690">
      <path
         id="Trazado_1984"
         d="m 220.177,211 h -24.605 a 6.151,6.151 0 0 0 0,12.3 h 3.768 L 183.27,271.512 167.2,223.3 h 3.768 a 6.151,6.151 0 0 0 0,-12.3 h -24.606 a 6.151,6.151 0 0 0 0,12.3 h 3.768 L 134.06,271.512 117.989,223.3 h 3.768 a 6.151,6.151 0 1 0 0,-12.3 H 97.151 a 6.151,6.151 0 0 0 0,12.3 h 7.869 l 23.2,69.609 a 6.151,6.151 0 0 0 11.671,0 l 18.77,-56.308 18.77,56.308 a 6.151,6.151 0 0 0 11.671,0 l 23.2,-69.609 h 7.869 a 6.151,6.151 0 0 0 0,-12.3 z"
         class="cls-1"
         data-name="Trazado 1984"
         transform="translate(-91,-211)"
         inkscape:connector-curvature="0"
         style="fill:#e3296f" />
    </g>
  </g>
  <g
     id="Grupo_693"
     data-name="Grupo 693">
    <g
       id="Grupo_692"
       data-name="Grupo 692">
      <path
         id="Trazado_1985"
         d="M191.51 0H18.454A18.475 18.475 0 0 0 0 18.454V191.51a18.475 18.475 0 0 0 18.454 18.454H191.51a18.475 18.475 0 0 0 18.454-18.454V18.454A18.475 18.475 0 0 0 191.51 0zM12.3 18.454a6.158 6.158 0 0 1 6.154-6.154h117.284v36.91H12.3zM197.661 191.51a6.158 6.158 0 0 1-6.151 6.151H18.454a6.158 6.158 0 0 1-6.154-6.151v-130h185.361zm0-142.3h-49.62V12.3h43.469a6.158 6.158 0 0 1 6.151 6.151z"
         class="cls-2"
         data-name="Trazado 1985" />
    </g>
  </g>
  <g
     id="Grupo_695"
     data-name="Grupo 695"
     transform="translate(24.605 24.605)">
    <g
       id="Grupo_694"
       data-name="Grupo 694">
      <path
         id="Trazado_1986"
         d="M78.864 60H66.151a6.151 6.151 0 0 0 0 12.3h12.713a6.151 6.151 0 0 0 0-12.3z"
         class="cls-3"
         data-name="Trazado 1986"
         transform="translate(-60 -60)" />
    </g>
  </g>
  <g
     id="Grupo_697"
     data-name="Grupo 697"
     transform="translate(61.923 24.605)">
    <g
       id="Grupo_696"
       data-name="Grupo 696">
      <path
         id="Trazado_1987"
         d="M169.454 60h-12.3a6.151 6.151 0 0 0 0 12.3h12.3a6.151 6.151 0 0 0 0-12.3z"
         class="cls-4"
         data-name="Trazado 1987"
         transform="translate(-151 -60)" />
    </g>
  </g>
  <g
     id="Grupo_699"
     data-name="Grupo 699"
     transform="translate(98.831 24.605)">
    <g
       id="Grupo_698"
       data-name="Grupo 698">
      <path
         id="Trazado_1988"
         d="M259.454 60h-12.3a6.151 6.151 0 0 0 0 12.3h12.3a6.151 6.151 0 0 0 0-12.3z"
         class="cls-5"
         data-name="Trazado 1988"
         transform="translate(-241 -60)" />
    </g>
  </g>
</svg>
