<?xml version="1.0" encoding="UTF-8" standalone="no"?>
<svg
   xmlns:dc="http://purl.org/dc/elements/1.1/"
   xmlns:cc="http://creativecommons.org/ns#"
   xmlns:rdf="http://www.w3.org/1999/02/22-rdf-syntax-ns#"
   xmlns:svg="http://www.w3.org/2000/svg"
   xmlns="http://www.w3.org/2000/svg"
   xmlns:sodipodi="http://sodipodi.sourceforge.net/DTD/sodipodi-0.dtd"
   xmlns:inkscape="http://www.inkscape.org/namespaces/inkscape"
   id="wikipedia"
   width="209.964"
   height="209.964"
   viewBox="0 0 209.964 209.964"
   version="1.1"
   sodipodi:docname="icono-proyectos.svg"
   inkscape:version="0.92.4 5da689c313, 2019-01-14">
  <metadata
     id="metadata24">
    <rdf:RDF>
      <cc:Work
         rdf:about="">
        <dc:format>image/svg+xml</dc:format>
        <dc:type
           rdf:resource="http://purl.org/dc/dcmitype/StillImage" />
        <dc:title />
      </cc:Work>
    </rdf:RDF>
  </metadata>
  <sodipodi:namedview
     pagecolor="#ffffff"
     bordercolor="#666666"
     borderopacity="1"
     objecttolerance="10"
     gridtolerance="10"
     guidetolerance="10"
     inkscape:pageopacity="0"
     inkscape:pageshadow="2"
     inkscape:window-width="1676"
     inkscape:window-height="999"
     id="namedview22"
     showgrid="false"
     inkscape:zoom="1.1240022"
     inkscape:cx="-214.19053"
     inkscape:cy="137.15471"
     inkscape:window-x="0"
     inkscape:window-y="24"
     inkscape:window-maximized="0"
     inkscape:current-layer="wikipedia" />
  <defs
     id="defs4">
    <style
       id="style2">
            .cls-1{fill:#e3296f}.cls-2{fill:#1897b6}.cls-3{fill:#fca528}.cls-4{fill:#4bb06e}.cls-5{fill:#64519c}
        </style>
  </defs>
  <g
     id="Grupo_693"
     data-name="Grupo 693">
    <g
       id="Grupo_692"
       data-name="Grupo 692">
      <path
         id="Trazado_1985"
         d="M191.51 0H18.454A18.475 18.475 0 0 0 0 18.454V191.51a18.475 18.475 0 0 0 18.454 18.454H191.51a18.475 18.475 0 0 0 18.454-18.454V18.454A18.475 18.475 0 0 0 191.51 0zM12.3 18.454a6.158 6.158 0 0 1 6.154-6.154h117.284v36.91H12.3zM197.661 191.51a6.158 6.158 0 0 1-6.151 6.151H18.454a6.158 6.158 0 0 1-6.154-6.151v-130h185.361zm0-142.3h-49.62V12.3h43.469a6.158 6.158 0 0 1 6.151 6.151z"
         class="cls-2"
         data-name="Trazado 1985" />
    </g>
  </g>
  <g
     id="Grupo_695"
     data-name="Grupo 695"
     transform="translate(24.605 24.605)">
    <g
       id="Grupo_694"
       data-name="Grupo 694">
      <path
         id="Trazado_1986"
         d="M78.864 60H66.151a6.151 6.151 0 0 0 0 12.3h12.713a6.151 6.151 0 0 0 0-12.3z"
         class="cls-3"
         data-name="Trazado 1986"
         transform="translate(-60 -60)" />
    </g>
  </g>
  <g
     id="Grupo_697"
     data-name="Grupo 697"
     transform="translate(61.923 24.605)">
    <g
       id="Grupo_696"
       data-name="Grupo 696">
      <path
         id="Trazado_1987"
         d="M169.454 60h-12.3a6.151 6.151 0 0 0 0 12.3h12.3a6.151 6.151 0 0 0 0-12.3z"
         class="cls-4"
         data-name="Trazado 1987"
         transform="translate(-151 -60)" />
    </g>
  </g>
  <g
     id="Grupo_699"
     data-name="Grupo 699"
     transform="translate(98.831 24.605)">
    <g
       id="Grupo_698"
       data-name="Grupo 698">
      <path
         id="Trazado_1988"
         d="M259.454 60h-12.3a6.151 6.151 0 0 0 0 12.3h12.3a6.151 6.151 0 0 0 0-12.3z"
         class="cls-5"
         data-name="Trazado 1988"
         transform="translate(-241 -60)" />
    </g>
  </g>
  <path
     inkscape:connector-curvature="0"
     id="Trazado_2089"
     d="m 104.97402,148.40891 a 33.254075,33.254075 0 0 0 19.71141,-6.41316 3.4983468,3.4983468 0 0 0 -4.12286,-5.65161 26.446711,26.446711 0 1 1 7.93204,-9.21919 3.4983468,3.4983468 0 0 0 6.20688,3.22847 33.485792,33.485792 0 1 0 -29.72747,18.05691 z m 0,0"
     class="cls-2"
     data-name="Trazado 2089"
     style="fill:#e3296f;fill-opacity:1;stroke-width:1.41290259" />
  <path
     inkscape:connector-curvature="0"
     id="Trazado_2090"
     d="m 108.87066,104.08474 -5.34361,4.66258 -2.29173,-2.0699 c -5.686932,-5.17406 -11.376689,-3.00384 -14.819934,0.75731 a 10.478086,10.478086 0 0 0 0.75732,14.81994 l 9.203638,8.30928 a 10.49504,10.49504 0 0 0 13.928406,0.11869 l 12.36007,-10.78045 a 10.493631,10.493631 0 0 0 -13.79558,-15.81604 z m 9.19799,10.54309 -12.36007,10.78327 a 3.4983468,3.4983468 0 0 1 -4.64423,-0.0396 l -9.203634,-8.30927 a 3.4757404,3.4757404 0 0 1 -0.252914,-4.94517 3.6099662,3.6099662 0 0 1 4.945162,-0.2529 l 4.596166,4.14969 a 3.4997597,3.4997597 0 0 0 4.64422,0.0381 l 7.68195,-6.7 a 3.496934,3.496934 0 0 1 4.59758,5.27013 z m 0,0"
     class="cls-2"
     data-name="Trazado 2090"
     style="fill:#e3296f;fill-opacity:1;stroke-width:1.41290259" />
  <path
     inkscape:connector-curvature="0"
     id="Trazado_2091"
     d="M 135.35234,152.03724 H 74.61166 a 10.530366,10.530366 0 1 0 0,21.06073 h 60.74068 a 10.530366,10.530366 0 1 0 0,-21.06073 z m 0,14.06545 H 74.61166 a 3.53226,3.53226 0 1 1 0,-7.06452 h 60.74068 a 3.53226,3.53226 0 1 1 0,7.06452 z m 0,0"
     class="cls-2"
     data-name="Trazado 2091"
     style="fill:#e3296f;fill-opacity:1;stroke-width:1.41290259" />
</svg>
