<?xml version="1.0" encoding="UTF-8" standalone="no"?>
<svg
   xmlns:dc="http://purl.org/dc/elements/1.1/"
   xmlns:cc="http://creativecommons.org/ns#"
   xmlns:rdf="http://www.w3.org/1999/02/22-rdf-syntax-ns#"
   xmlns:svg="http://www.w3.org/2000/svg"
   xmlns="http://www.w3.org/2000/svg"
   xmlns:sodipodi="http://sodipodi.sourceforge.net/DTD/sodipodi-0.dtd"
   xmlns:inkscape="http://www.inkscape.org/namespaces/inkscape"
   id="wikipedia"
   width="209.964"
   height="209.964"
   viewBox="0 0 209.964 209.964"
   version="1.1"
   sodipodi:docname="icono-acciones.svg"
   inkscape:version="0.92.4 5da689c313, 2019-01-14">
  <metadata
     id="metadata24">
    <rdf:RDF>
      <cc:Work
         rdf:about="">
        <dc:format>image/svg+xml</dc:format>
        <dc:type
           rdf:resource="http://purl.org/dc/dcmitype/StillImage" />
        <dc:title />
      </cc:Work>
    </rdf:RDF>
  </metadata>
  <sodipodi:namedview
     pagecolor="#ffffff"
     bordercolor="#666666"
     borderopacity="1"
     objecttolerance="10"
     gridtolerance="10"
     guidetolerance="10"
     inkscape:pageopacity="0"
     inkscape:pageshadow="2"
     inkscape:window-width="1680"
     inkscape:window-height="1050"
     id="namedview22"
     showgrid="false"
     inkscape:zoom="1.1240022"
     inkscape:cx="142.49676"
     inkscape:cy="104.982"
     inkscape:window-x="0"
     inkscape:window-y="0"
     inkscape:window-maximized="0"
     inkscape:current-layer="text4539" />
  <defs
     id="defs4">
    <style
       id="style2">
            .cls-1{fill:#e3296f}.cls-2{fill:#1897b6}.cls-3{fill:#fca528}.cls-4{fill:#4bb06e}.cls-5{fill:#64519c}
        </style>
  </defs>
  <g
     id="Grupo_691"
     data-name="Grupo 691"
     transform="translate(37.318 86.528)">
    <g
       id="Grupo_690"
       data-name="Grupo 690">
      <g
         aria-label="!"
         style="font-style:normal;font-weight:normal;font-size:136.3286438px;line-height:1.25;font-family:sans-serif;letter-spacing:0px;word-spacing:0px;fill:#e3296f;fill-opacity:1;stroke:none;stroke-width:3.40821648"
         id="text4539">
        <path
           d="m 78.9115,11.451272 c 0.136333,-1.7723337 0.272666,-3.5446669 0.272666,-4.6353336 0,-5.9986664 -5.044333,-10.7703329 -11.451999,-10.7703329 -6.544,0 -11.588333,4.7716665 -11.588333,10.7703329 0,1.0906667 0.136333,2.8629999 0.272667,4.6353336 l 3.953666,38.582332 c 0.409,4.226333 3.135667,6.816666 7.362,6.816666 4.09,0 6.816666,-2.590333 7.225666,-6.816666 z M 68.822834,82.071936 c 5.453333,0 9.679666,-3.953667 9.679666,-9.134333 0,-5.044333 -4.226333,-9.134333 -9.679666,-9.134333 h -2.317667 c -5.317,0 -9.543333,4.09 -9.543333,9.134333 0,5.044333 4.226333,9.134333 9.543333,9.134333 z"
           style="font-style:normal;font-variant:normal;font-weight:bold;font-stretch:normal;font-size:136.33332825px;font-family:'Nimbus Mono PS';-inkscape-font-specification:'Nimbus Mono PS, Bold';font-variant-ligatures:normal;font-variant-caps:normal;font-variant-numeric:normal;font-feature-settings:normal;text-align:start;writing-mode:lr-tb;text-anchor:start;stroke-width:3.40821648"
           id="path831" />
      </g>
    </g>
  </g>
  <g
     id="Grupo_693"
     data-name="Grupo 693">
    <g
       id="Grupo_692"
       data-name="Grupo 692">
      <path
         id="Trazado_1985"
         d="M191.51 0H18.454A18.475 18.475 0 0 0 0 18.454V191.51a18.475 18.475 0 0 0 18.454 18.454H191.51a18.475 18.475 0 0 0 18.454-18.454V18.454A18.475 18.475 0 0 0 191.51 0zM12.3 18.454a6.158 6.158 0 0 1 6.154-6.154h117.284v36.91H12.3zM197.661 191.51a6.158 6.158 0 0 1-6.151 6.151H18.454a6.158 6.158 0 0 1-6.154-6.151v-130h185.361zm0-142.3h-49.62V12.3h43.469a6.158 6.158 0 0 1 6.151 6.151z"
         class="cls-2"
         data-name="Trazado 1985" />
    </g>
  </g>
  <g
     id="Grupo_695"
     data-name="Grupo 695"
     transform="translate(24.605 24.605)">
    <g
       id="Grupo_694"
       data-name="Grupo 694">
      <path
         id="Trazado_1986"
         d="M78.864 60H66.151a6.151 6.151 0 0 0 0 12.3h12.713a6.151 6.151 0 0 0 0-12.3z"
         class="cls-3"
         data-name="Trazado 1986"
         transform="translate(-60 -60)" />
    </g>
  </g>
  <g
     id="Grupo_697"
     data-name="Grupo 697"
     transform="translate(61.923 24.605)">
    <g
       id="Grupo_696"
       data-name="Grupo 696">
      <path
         id="Trazado_1987"
         d="M169.454 60h-12.3a6.151 6.151 0 0 0 0 12.3h12.3a6.151 6.151 0 0 0 0-12.3z"
         class="cls-4"
         data-name="Trazado 1987"
         transform="translate(-151 -60)" />
    </g>
  </g>
  <g
     id="Grupo_699"
     data-name="Grupo 699"
     transform="translate(98.831 24.605)">
    <g
       id="Grupo_698"
       data-name="Grupo 698">
      <path
         id="Trazado_1988"
         d="M259.454 60h-12.3a6.151 6.151 0 0 0 0 12.3h12.3a6.151 6.151 0 0 0 0-12.3z"
         class="cls-5"
         data-name="Trazado 1988"
         transform="translate(-241 -60)" />
    </g>
  </g>
</svg>
