<svg xmlns="http://www.w3.org/2000/svg" width="135.811" height="54" viewBox="0 0 135.811 54">
    <defs>
        <style>
            .cls-1{fill:#5a3886}.cls-2{fill:#3a9e52}.cls-3{fill:#0089b0}.cls-4{fill:#dc0028}.cls-5{fill:#db0056}.cls-6{fill:#fd9f00}
        </style>
    </defs>
    <g id="Grupo_354" data-name="Grupo 354" transform="translate(-220.758 -421.932)">
        <path id="Trazado_39" d="M242.044 430.045c0-3.319 1.085-6.244 5.554-6.244 3.254 0 4.765 1.643 4.765 4.305v2.366h-3.089v-1.643c0-1.512-.526-2.465-1.906-2.465-1.709 0-2.038 1.216-2.038 4.076v11.634c0 2.794.887 3.287 1.939 3.287 1.216 0 2-.855 2-2.827v-1.643h3.089v2.629c0 2.5-1.019 4.4-4.831 4.4-4.141 0-5.489-2.2-5.489-5.883z" class="cls-1" data-name="Trazado 39" transform="translate(-16.418 -1.442)"/>
        <path id="Trazado_40" d="M314.708 442.213h-14.56l-3.056 6.179h-3.812l12.193-23.729h4.01l12.193 23.729h-3.911zm-1.315-2.695l-5.916-11.963-5.949 11.963z" class="cls-2" data-name="Trazado 40" transform="translate(-55.938 -2.106)"/>
        <path id="Trazado_41" d="M424.9 424.663h3.024v15.184c0 5.193 1.577 6.507 4.437 6.507s4.437-1.315 4.437-6.507v-15.184h3.023v15.052c0 6.573-2.432 9.169-7.46 9.169s-7.461-2.6-7.461-9.169z" class="cls-3" data-name="Trazado 41" transform="translate(-157.46 -2.106)"/>
        <path id="Trazado_42" d="M504.253 440.858h3.287v1.942c0 1.577.592 2.564 1.906 2.564 1.742 0 2.169-1.183 2.169-2.728 0-2-.1-2.662-3.517-6.047-2.1-2.1-3.846-4.01-3.846-7.23 0-3.878 1.808-5.554 5.39-5.554a5.589 5.589 0 0 1 3.845 1.315 3.809 3.809 0 0 1 .953 3.023v2.235h-3.089V428.5c0-1.348-.559-2.136-1.84-2.136-1.347 0-1.972.756-1.972 2.6 0 1.61.329 2.6 3.352 5.752 3.221 3.352 3.813 4.5 3.813 7.362 0 3.714-1.446 5.85-5.357 5.85-3.023 0-5.094-1.282-5.094-4.24z" class="cls-4" data-name="Trazado 42" transform="translate(-218.665 -1.442)"/>
        <path id="Trazado_43" d="M567.185 424.663h3.515l9.6 23.729h-3.582l-2.563-6.179h-11.01l-2.563 6.179h-3.385zm-2.991 14.888h8.972l-4.366-11.634z" class="cls-5" data-name="Trazado 43" transform="translate(-259.499 -2.106)"/>
        <path id="Trazado_44" d="M680.795 428.867c-.329-3.319-3.714-4.24-7.559-4.24-3.385 0-6.244 1.676-6.244 4.305 0 1.282.789 2.6 3.714 3.089l8.841 1.512c3.845.657 5.62 2.859 5.62 5.784 0 4.733-4.24 7.592-11.273 7.592-6.737 0-10.648-2.5-11.076-7.723h3.615c.1 3.188 3.155 5.028 7.658 5.028 4.93 0 7.658-1.939 7.658-4.535 0-6.573-18.174-.625-18.174-10.55 0-4.568 3.878-7.2 10.352-7.2 4.93 0 10.156 1.479 10.484 6.935z" class="cls-6" data-name="Trazado 44" transform="translate(-340.968)"/>
        <path id="Trazado_45" d="M220.758 556.956c0-3.319 1.085-6.244 5.555-6.244 3.253 0 4.765 1.643 4.765 4.305v2.366h-3.089v-1.643c0-1.512-.526-2.465-1.906-2.465-1.709 0-2.038 1.216-2.038 4.075v11.634c0 2.794.888 3.287 1.939 3.287 1.216 0 2-.855 2-2.826V567.8h3.089v2.629c0 2.5-1.019 4.4-4.831 4.4-4.141 0-5.489-2.2-5.489-5.883z" class="cls-3" data-name="Trazado 45" transform="translate(0 -99.33)"/>
        <path id="Trazado_46" d="M289.12 548.843c9.958 0 13.343 6.836 13.343 12.489s-3.385 12.489-13.343 12.489-13.344-6.836-13.344-12.489 3.385-12.489 13.344-12.489zm0 22.283c5.751 0 9.728-3.944 9.728-9.794s-3.977-9.794-9.728-9.794-9.728 3.944-9.728 9.794 3.976 9.794 9.728 9.794z" class="cls-4" data-name="Trazado 46" transform="translate(-42.436 -97.889)"/>
        <path id="Trazado_47" d="M408.172 575.3h-2.826v-23.726h4.9l5.981 19.916h.066l6.047-19.916h5V575.3h-3.024v-21.1h-.066l-6.65 21.1h-2.859l-6.508-21.1h-.065z" class="cls-5" data-name="Trazado 47" transform="translate(-142.375 -99.995)"/>
        <path id="Trazado_48" d="M635.462 551.574H640l3.878 19.719h.066v-19.719h3.089V575.3H642.3l-3.878-20.245h-.066V575.3h-2.892z" class="cls-1" data-name="Trazado 48" transform="translate(-319.869 -99.995)"/>
        <path id="Trazado_49" d="M703.055 575.3v-23.726h12.226v2.626h-9.2v7.625h8.545v2.629h-8.545v8.216h9.4v2.63z" class="cls-2" data-name="Trazado 49" transform="translate(-372.005 -99.995)"/>
        <path id="Trazado_50" d="M768.94 567.769h3.287v1.939c0 1.577.592 2.563 1.906 2.563 1.742 0 2.169-1.183 2.169-2.728 0-2-.1-2.662-3.517-6.047-2.1-2.1-3.845-4.01-3.845-7.23 0-3.878 1.808-5.554 5.39-5.554a5.591 5.591 0 0 1 3.846 1.314 3.81 3.81 0 0 1 .953 3.024v2.235h-3.089v-1.873c0-1.348-.559-2.136-1.84-2.136-1.347 0-1.972.756-1.972 2.6 0 1.61.329 2.6 3.352 5.752 3.221 3.352 3.813 4.5 3.813 7.362 0 3.714-1.446 5.85-5.357 5.85-3.023 0-5.094-1.282-5.094-4.24z" class="cls-4" data-name="Trazado 50" transform="translate(-422.823 -99.33)"/>
        <path id="Trazado_51" d="M541.838 551.662a.019.019 0 0 0 0-.012.131.131 0 0 0-.132-.111h-.009a.134.134 0 0 0-.135.123l-.108 1.583a.143.143 0 0 1-.285 0l-.111-1.583a.132.132 0 0 0-.132-.123h-.009a.135.135 0 0 0-.135.123l-.108 1.583a.145.145 0 0 1-.288 0l-.108-1.583a.132.132 0 0 0-.135-.123h-.006a.133.133 0 0 0-.135.123l-.108 1.583a.145.145 0 0 1-.288 0l-.108-1.583a.135.135 0 0 0-.135-.123h-.009a.132.132 0 0 0-.132.123l-.111 1.583a.143.143 0 0 1-.285 0l-.108-.787a.137.137 0 0 0-.135-.123.13.13 0 0 0-.087.033.118.118 0 0 0-.048.1l-.01 13.4c0 4.535-2.728 7.329-7.625 7.329s-7.625-2.794-7.625-7.329V552.46a.118.118 0 0 0-.048-.1.132.132 0 0 0-.087-.033.137.137 0 0 0-.136.123l-.109.79a.144.144 0 0 1-.286 0l-.112-1.589a.132.132 0 0 0-.132-.123h-.009a.135.135 0 0 0-.135.123l-.109 1.589a.145.145 0 0 1-.289 0l-.109-1.589a.133.133 0 0 0-.136-.123h-.006a.133.133 0 0 0-.136.123l-.108 1.589a.145.145 0 0 1-.289 0l-.109-1.589a.135.135 0 0 0-.135-.123h-.009a.132.132 0 0 0-.133.123l-.112 1.589a.143.143 0 0 1-.286 0l-.108-1.589a.135.135 0 0 0-.136-.123h-.009a.131.131 0 0 0-.133.112.018.018 0 0 0 0 .012l-.011 14.052c0 6.77 4.6 10.188 11.043 10.188s11.043-3.418 11.043-10.188z" class="cls-6" data-name="Trazado 51" transform="translate(-230.629 -99.961)"/>
    </g>
</svg>
