<svg xmlns="http://www.w3.org/2000/svg" width="1920" height="642.56" viewBox="0 0 1920 642.56">
    <defs>
        <style>
            .cls-1,.cls-4,.cls-5,.cls-6{fill:none}.cls-2{opacity:.03}.cls-3{clip-path:url(#clip-path)}.cls-4,.cls-6{stroke:#2e2e2d;stroke-width:4px}.cls-4,.cls-5{stroke-miterlimit:10}.cls-6{stroke-linejoin:round}.cls-7,.cls-8{stroke:none}.cls-8{fill:#2e2e2d}
        </style>
        <clipPath id="clip-path">
            <path id="Rectángulo_423" d="M0 0h1920v642.56H0z" class="cls-1" data-name="Rectángulo 423"/>
        </clipPath>
    </defs>
    <g id="Grupo_415" class="cls-2" data-name="Grupo 415">
        <g id="Grupo_414" class="cls-3" data-name="Grupo 414">
            <g id="Grupo_413" data-name="Grupo 413" transform="translate(-61.44 -95.341)">
                <g id="Grupo_358" data-name="Grupo 358" transform="translate(199.68 64.621)">
                    <circle id="Elipse_93" cx="30.72" cy="30.72" r="30.72" class="cls-4" data-name="Elipse 93" transform="translate(0 6.4)"/>
                    <path id="Línea_12" d="M0 0v15.36" class="cls-4" data-name="Línea 12" transform="translate(30.72 83.2)"/>
                    <path id="Línea_13" d="M0 0h30.72" class="cls-4" data-name="Línea 13" transform="translate(15.36 83.2)"/>
                    <path id="Trazado_1658" d="M150-24h15.36v15.36" class="cls-4" data-name="Trazado 1658" transform="translate(-96.24 24)"/>
                </g>
                <g id="Grupo_359" data-name="Grupo 359" transform="translate(1144.32 565.101)">
                    <circle id="Elipse_94" cx="30.72" cy="30.72" r="30.72" class="cls-4" data-name="Elipse 94" transform="translate(0 6.4)"/>
                    <path id="Línea_14" d="M0 0v15.36" class="cls-4" data-name="Línea 14" transform="translate(30.72 83.2)"/>
                    <path id="Línea_15" d="M0 0h30.72" class="cls-4" data-name="Línea 15" transform="translate(15.36 83.2)"/>
                    <path id="Trazado_1659" d="M888 367h15.36v15.36" class="cls-4" data-name="Trazado 1659" transform="translate(-834.24 -367)"/>
                </g>
                <g id="Grupo_360" data-name="Grupo 360" transform="translate(1689.6 679.021)">
                    <circle id="Elipse_95" cx="30.72" cy="30.72" r="30.72" class="cls-4" data-name="Elipse 95" transform="translate(0 6.4)"/>
                    <path id="Línea_16" d="M0 0v15.36" class="cls-4" data-name="Línea 16" transform="translate(30.72 83.2)"/>
                    <path id="Línea_17" d="M0 0h30.72" class="cls-4" data-name="Línea 17" transform="translate(15.36 83.2)"/>
                    <path id="Trazado_1660" d="M1314 456h15.36v15.36" class="cls-4" data-name="Trazado 1660" transform="translate(-1260.24 -456)"/>
                </g>
                <g id="Grupo_361" data-name="Grupo 361" transform="translate(710.023 58.221)">
                    <circle id="Elipse_96" cx="30.72" cy="30.72" r="30.72" class="cls-4" data-name="Elipse 96" transform="translate(0 6.4)"/>
                    <path id="Línea_18" d="M0 0v15.36" class="cls-4" data-name="Línea 18" transform="translate(30.72 83.2)"/>
                    <path id="Línea_19" d="M0 0h30.72" class="cls-4" data-name="Línea 19" transform="translate(15.36 83.2)"/>
                    <path id="Trazado_1661" d="M548.706-29h15.36v15.36" class="cls-4" data-name="Trazado 1661" transform="translate(-494.946 29)"/>
                </g>
                <g id="Trazado_1662" class="cls-5" data-name="Trazado 1662">
                    <path d="M267.137 64.388a28.058 28.058 0 0 0-20.745-8.2A39.672 39.672 0 0 0 268.2 32.367l4.586-13.757-13.756 4.59A39.671 39.671 0 0 0 235.209 45a28.058 28.058 0 0 0-8.2-20.745l-7.251-7.25-1.45 10.15a28.066 28.066 0 0 0 6.744 22.54 21.055 21.055 0 0 0-14.173 1.674L204 54.814l6.879 3.439a21.021 21.021 0 0 0 15.569 1.266l-7.965 7.967a3.839 3.839 0 1 0 5.43 5.43l7.967-7.965a21.021 21.021 0 0 0 1.266 15.569l3.439 6.879 3.439-6.879a21.055 21.055 0 0 0 1.676-14.175 28.066 28.066 0 0 0 22.539 6.744l10.15-1.45z" class="cls-7" transform="translate(118.56 100.104)"/>
                    <path d="M236.584 87.397l3.44-6.879a21.055 21.055 0 0 0 1.673-14.173 28.072 28.072 0 0 0 22.54 6.744l10.15-1.45-7.25-7.251a28.057 28.057 0 0 0-20.745-8.2 39.672 39.672 0 0 0 21.809-23.82l4.586-13.758-13.757 4.586a39.671 39.671 0 0 0-23.821 21.809 28.058 28.058 0 0 0-8.2-20.745l-7.25-7.25-1.451 10.15a28.066 28.066 0 0 0 6.744 22.54 21.073 21.073 0 0 0-14.173 1.674L204 54.814l6.879 3.439a20.87 20.87 0 0 0 9.343 2.2 21.26 21.26 0 0 0 6.225-.934l-7.965 7.967a3.838 3.838 0 0 0 2.715 6.554c.983 0 1.965-.375 2.715-1.125l7.966-7.965c-1.569 5.124-1.17 10.697 1.266 15.568l3.44 6.88m0 8.944l-3.578-7.156-3.44-6.879a24.707 24.707 0 0 1-2.295-7.094l-.531.53a7.785 7.785 0 0 1-5.543 2.297 7.786 7.786 0 0 1-5.545-2.297 7.784 7.784 0 0 1-2.295-5.543c0-2.094.816-4.064 2.298-5.544l.533-.534a24.938 24.938 0 0 1-7.098-2.291l-6.879-3.44-7.155-3.577 7.155-3.578 6.879-3.44a25.187 25.187 0 0 1 8.254-2.466 32.12 32.12 0 0 1-3.225-11.761c-.177-2.321-.1-4.667.229-6.974l1.45-10.15 1.132-7.92 5.656 5.656 7.251 7.25a31.848 31.848 0 0 1 7.617 12.16 43.708 43.708 0 0 1 11.923-10.366 43.661 43.661 0 0 1 8.388-3.824l13.757-4.586 7.59-2.53-2.53 7.59-4.586 13.757a43.661 43.661 0 0 1-3.823 8.389 43.707 43.707 0 0 1-10.366 11.922c.577.2 1.15.418 1.718.652a31.871 31.871 0 0 1 10.44 6.965l7.25 7.25 5.656 5.658-7.918 1.13-10.15 1.451a32.044 32.044 0 0 1-18.737-2.995 25.057 25.057 0 0 1-2.465 8.252l-3.44 6.88-3.577 7.156z" class="cls-8" transform="translate(118.56 100.104)"/>
                </g>
                <g id="Trazado_1663" class="cls-5" data-name="Trazado 1663">
                    <path d="M1211.379 127.25a28.064 28.064 0 0 0-8.2 20.745 39.676 39.676 0 0 0-23.821-21.809L1165.6 121.6l4.586 13.757a39.675 39.675 0 0 0 21.809 23.821 28.064 28.064 0 0 0-20.745 8.2l-7.25 7.25 10.152 1.45a28.059 28.059 0 0 0 22.54-6.744 21.043 21.043 0 0 0 1.673 14.173l3.441 6.879 3.439-6.879a21.022 21.022 0 0 0 1.265-15.569l7.967 7.967a3.84 3.84 0 0 0 5.431-5.431l-7.967-7.967a21.021 21.021 0 0 0 15.569-1.265l6.879-3.439-6.879-3.441a21.045 21.045 0 0 0-14.174-1.673 28.059 28.059 0 0 0 6.744-22.54L1218.629 120z" class="cls-7" transform="translate(387.36 128.941)"/>
                    <path d="M1218.63 120l-7.25 7.25a28.064 28.064 0 0 0-8.202 20.745 39.676 39.676 0 0 0-23.82-21.809L1165.6 121.6l4.586 13.757a39.675 39.675 0 0 0 21.809 23.821 28.06 28.06 0 0 0-20.745 8.201l-7.25 7.25 10.152 1.45a28.052 28.052 0 0 0 22.54-6.744 21.043 21.043 0 0 0 1.672 14.173l3.44 6.88 3.44-6.88c2.436-4.871 2.834-10.444 1.265-15.568l7.966 7.967a3.83 3.83 0 0 0 2.716 1.124 3.842 3.842 0 0 0 2.716-6.555l-7.967-7.967c2.029.621 4.129.934 6.227.934 3.201 0 6.399-.728 9.342-2.199l6.878-3.44-6.878-3.44a21.03 21.03 0 0 0-14.174-1.673 28.059 28.059 0 0 0 6.744-22.54L1218.63 120m2.829-8.485l1.131 7.92 1.45 10.151c.33 2.306.407 4.652.23 6.973a32.104 32.104 0 0 1-3.225 11.761 25.17 25.17 0 0 1 8.253 2.466l6.88 3.441 7.153 3.578-7.154 3.577-6.879 3.44a24.929 24.929 0 0 1-7.096 2.29l.534.535c3.055 3.058 3.055 8.03.001 11.087a7.793 7.793 0 0 1-5.545 2.297 7.79 7.79 0 0 1-5.543-2.295l-.531-.532a24.703 24.703 0 0 1-2.295 7.093l-3.44 6.88-3.577 7.153-3.578-7.153-3.44-6.88a25.045 25.045 0 0 1-2.465-8.252 32.032 32.032 0 0 1-18.736 2.994l-10.152-1.45-7.92-1.131 5.658-5.657 7.25-7.25a31.877 31.877 0 0 1 10.442-6.965c.568-.234 1.14-.452 1.717-.652a43.71 43.71 0 0 1-10.367-11.923 43.658 43.658 0 0 1-3.823-8.389l-4.586-13.757-2.53-7.59 7.59 2.53 13.758 4.587c2.919.972 5.741 2.259 8.388 3.823a43.709 43.709 0 0 1 11.923 10.367 31.849 31.849 0 0 1 7.617-12.16l7.25-7.25 5.657-5.657z" class="cls-8" transform="translate(387.36 128.941)"/>
                </g>
                <g id="Trazado_1664" class="cls-5" data-name="Trazado 1664">
                    <path d="M692.147 287.379a28.064 28.064 0 0 0-20.745-8.2 39.675 39.675 0 0 0 21.809-23.821L697.8 241.6l-13.757 4.586a39.675 39.675 0 0 0-23.821 21.809 28.064 28.064 0 0 0-8.2-20.745l-7.25-7.25-1.45 10.152a28.06 28.06 0 0 0 6.744 22.54 21.045 21.045 0 0 0-14.173 1.673l-6.883 3.435 6.879 3.439a21.021 21.021 0 0 0 15.569 1.265l-7.967 7.967a3.84 3.84 0 0 0 5.431 5.431l7.967-7.967a21.021 21.021 0 0 0 1.265 15.569l3.439 6.879 3.441-6.879a21.045 21.045 0 0 0 1.673-14.173 28.059 28.059 0 0 0 22.539 6.744l10.152-1.45z" class="cls-7" transform="translate(237.563 162.541)"/>
                    <path d="M661.592 310.387l3.441-6.879a21.045 21.045 0 0 0 1.673-14.173 28.068 28.068 0 0 0 22.54 6.744l10.151-1.45-7.25-7.25a28.063 28.063 0 0 0-20.745-8.2 39.675 39.675 0 0 0 21.809-23.822l4.586-13.757-13.757 4.586a39.675 39.675 0 0 0-23.821 21.809 28.064 28.064 0 0 0-8.201-20.745l-7.25-7.25-1.45 10.152a28.06 28.06 0 0 0 6.744 22.54 21.027 21.027 0 0 0-14.173 1.673l-6.879 3.44 6.879 3.44a20.866 20.866 0 0 0 9.341 2.198c2.099 0 4.198-.313 6.227-.934l-7.966 7.966a3.842 3.842 0 0 0 2.715 6.556 3.83 3.83 0 0 0 2.716-1.124l7.966-7.967c-1.569 5.124-1.17 10.697 1.265 15.568l3.44 6.88m-.001 8.942l-3.577-7.154-3.44-6.879a24.696 24.696 0 0 1-2.294-7.093l-.53.531a7.792 7.792 0 0 1-5.545 2.296 7.79 7.79 0 0 1-5.543-2.295c-3.056-3.059-3.056-8.032-.002-11.088l.535-.535a24.93 24.93 0 0 1-7.096-2.291l-6.879-3.44-7.154-3.577 7.154-3.578 6.878-3.44a25.171 25.171 0 0 1 8.254-2.467 32.104 32.104 0 0 1-3.225-11.76c-.177-2.322-.1-4.668.23-6.974l1.45-10.152 1.132-7.92 5.656 5.658 7.25 7.25a31.85 31.85 0 0 1 7.617 12.16 43.71 43.71 0 0 1 11.923-10.367 43.657 43.657 0 0 1 8.39-3.824l13.756-4.586 7.59-2.53-2.53 7.59-4.586 13.757a43.654 43.654 0 0 1-3.823 8.39 43.712 43.712 0 0 1-10.367 11.922c.576.2 1.149.418 1.717.652a31.874 31.874 0 0 1 10.443 6.965l7.25 7.25 5.657 5.656-7.92 1.132-10.152 1.45a32.035 32.035 0 0 1-18.736-2.994 25.04 25.04 0 0 1-2.464 8.252l-3.441 6.88-3.578 7.153z" class="cls-8" transform="translate(237.563 162.541)"/>
                </g>
                <g id="Trazado_1665" class="cls-5" data-name="Trazado 1665">
                    <path d="M1388.147 395.379a28.065 28.065 0 0 0-20.745-8.2 39.676 39.676 0 0 0 21.809-23.821l4.589-13.758-13.758 4.586a39.676 39.676 0 0 0-23.821 21.809 28.066 28.066 0 0 0-8.2-20.745l-7.25-7.25-1.45 10.152a28.059 28.059 0 0 0 6.744 22.54 21.044 21.044 0 0 0-14.173 1.673l-6.879 3.441 6.879 3.439a21.02 21.02 0 0 0 15.568 1.265l-7.967 7.967a3.84 3.84 0 0 0 5.431 5.431l7.967-7.967a21.021 21.021 0 0 0 1.264 15.569l3.439 6.879 3.441-6.879a21.046 21.046 0 0 0 1.673-14.173 28.059 28.059 0 0 0 22.54 6.744l10.151-1.45z" class="cls-7" transform="translate(432.443 192.781)"/>
                    <path d="M1357.592 418.387l3.441-6.879a21.046 21.046 0 0 0 1.673-14.173 28.068 28.068 0 0 0 22.54 6.744l10.151-1.45-7.25-7.25a28.063 28.063 0 0 0-20.745-8.2 39.676 39.676 0 0 0 21.809-23.822l4.586-13.757-13.757 4.586a39.676 39.676 0 0 0-23.821 21.809 28.066 28.066 0 0 0-8.2-20.745l-7.25-7.25-1.451 10.152a28.059 28.059 0 0 0 6.744 22.54 21.026 21.026 0 0 0-14.173 1.673l-6.879 3.44 6.879 3.44a20.864 20.864 0 0 0 9.34 2.198c2.1 0 4.199-.313 6.228-.934l-7.967 7.966a3.842 3.842 0 0 0 2.716 6.556 3.83 3.83 0 0 0 2.716-1.124l7.966-7.967c-1.57 5.124-1.17 10.697 1.265 15.568l3.44 6.88m-.001 8.942l-3.577-7.154-3.44-6.879a24.702 24.702 0 0 1-2.294-7.092l-.53.53a7.793 7.793 0 0 1-5.545 2.296 7.791 7.791 0 0 1-5.543-2.295c-3.056-3.059-3.056-8.031-.002-11.088l.535-.535a24.927 24.927 0 0 1-7.096-2.291l-6.879-3.44-7.154-3.577 7.154-3.578 6.878-3.44a25.168 25.168 0 0 1 8.254-2.467 32.112 32.112 0 0 1-3.225-11.761c-.177-2.32-.1-4.667.23-6.974l1.45-10.15 1.132-7.92 5.657 5.657 7.25 7.25a31.85 31.85 0 0 1 7.616 12.16 43.712 43.712 0 0 1 11.923-10.367 43.653 43.653 0 0 1 8.389-3.824l13.757-4.586 7.59-2.53-2.53 7.59-4.586 13.757a43.656 43.656 0 0 1-3.824 8.39 43.708 43.708 0 0 1-10.366 11.922c.577.2 1.149.418 1.717.652a31.874 31.874 0 0 1 10.443 6.965l7.25 7.25 5.656 5.657-7.92 1.13-10.15 1.451a32.036 32.036 0 0 1-18.736-2.994 25.038 25.038 0 0 1-2.465 8.252l-3.441 6.88-3.578 7.153z" class="cls-8" transform="translate(432.443 192.781)"/>
                </g>
                <g id="Grupo_363" data-name="Grupo 363" transform="translate(199.68 233.581)">
                    <g id="Grupo_362" data-name="Grupo 362" transform="translate(3.43)">
                        <path id="Trazado_1666" d="M125.46 179.2l-14.78-25.6 14.78-25.6h29.56l14.78 25.6-14.78 25.6z" class="cls-4" data-name="Trazado 1666" transform="translate(-110.68 -102.4)"/>
                        <path id="Trazado_1667" d="M160.2 159.2l-14.78-25.6L160.2 108h29.56l14.78 25.6-14.78 25.6z" class="cls-4" data-name="Trazado 1667" transform="translate(-100.952 -108)"/>
                    </g>
                    <path id="Línea_20" d="M17.821 17.821L0 0" class="cls-4" data-name="Línea 20" transform="translate(91.259 51.2)"/>
                    <path id="Línea_21" d="M17.821 17.821L0 0" class="cls-4" data-name="Línea 21" transform="translate(0 7.779)"/>
                </g>
                <g id="Grupo_365" data-name="Grupo 365" transform="translate(1723.783 202.861)">
                    <g id="Grupo_364" data-name="Grupo 364" transform="translate(3.43)">
                        <path id="Trazado_1668" d="M1316.166 155.2l-14.78-25.6 14.78-25.6h29.56l14.78 25.6-14.78 25.6z" class="cls-6" data-name="Trazado 1668" transform="translate(-1301.385 -78.4)"/>
                        <path id="Trazado_1669" d="M1350.909 135.2l-14.78-25.6 14.78-25.6h29.56l14.78 25.6-14.78 25.6z" class="cls-6" data-name="Trazado 1669" transform="translate(-1291.658 -84)"/>
                    </g>
                    <path id="Línea_22" d="M17.821 17.821L0 0" class="cls-6" data-name="Línea 22" transform="translate(91.259 51.2)"/>
                    <path id="Línea_23" d="M17.821 17.821L0 0" class="cls-6" data-name="Línea 23" transform="translate(0 7.779)"/>
                </g>
                <g id="Grupo_367" data-name="Grupo 367" transform="translate(1230.703 187.501)">
                    <g id="Grupo_366" data-name="Grupo 366" transform="translate(3.43)">
                        <path id="Trazado_1670" d="M930.947 143.2l-14.78-25.6 14.78-25.6h29.56l14.78 25.6-14.78 25.6z" class="cls-4" data-name="Trazado 1670" transform="translate(-916.167 -66.4)"/>
                        <path id="Trazado_1671" d="M965.69 123.2l-14.78-25.6L965.69 72h29.56l14.78 25.6-14.78 25.6z" class="cls-4" data-name="Trazado 1671" transform="translate(-906.439 -72)"/>
                    </g>
                    <path id="Línea_24" d="M17.821 17.821L0 0" class="cls-4" data-name="Línea 24" transform="translate(91.259 51.2)"/>
                    <path id="Línea_25" d="M17.821 17.821L0 0" class="cls-4" data-name="Línea 25" transform="translate(0 7.779)"/>
                </g>
                <g id="Grupo_369" data-name="Grupo 369" transform="translate(786.823 172.141)">
                    <g id="Grupo_368" data-name="Grupo 368" transform="translate(3.43)">
                        <path id="Trazado_1672" d="M584.166 131.2l-14.78-25.6 14.78-25.6h29.56l14.78 25.6-14.78 25.6z" class="cls-4" data-name="Trazado 1672" transform="translate(-569.385 -54.4)"/>
                        <path id="Trazado_1673" d="M618.909 111.2l-14.78-25.6 14.78-25.6h29.56l14.78 25.6-14.78 25.6z" class="cls-4" data-name="Trazado 1673" transform="translate(-559.657 -60)"/>
                    </g>
                    <path id="Línea_26" d="M17.821 17.821L0 0" class="cls-4" data-name="Línea 26" transform="translate(91.259 51.2)"/>
                    <path id="Línea_27" d="M17.821 17.821L0 0" class="cls-4" data-name="Línea 27" transform="translate(0 7.779)"/>
                </g>
                <g id="Grupo_370" data-name="Grupo 370" transform="translate(0 202.861)">
                    <circle id="Elipse_97" cx="61.44" cy="61.44" r="61.44" class="cls-6" data-name="Elipse 97"/>
                    <path id="Trazado_1674" d="M-42 111.36h23.04v30.72H-3.6v46.08l15.36-15.36 15.36-15.36v-15.36H-3.6v-15.36h15.36V96h-39.68" class="cls-6" data-name="Trazado 1674" transform="translate(49.68 -80.64)"/>
                    <path id="Trazado_1675" d="M51.36 132H36v30.72h7.68" class="cls-6" data-name="Trazado 1675" transform="translate(71.52 -70.56)"/>
                </g>
                <g id="Grupo_371" data-name="Grupo 371" transform="translate(1401.223 95.341)">
                    <circle id="Elipse_98" cx="61.44" cy="61.44" r="61.44" class="cls-6" data-name="Elipse 98"/>
                    <path id="Trazado_1676" d="M1052.706 27.36h23.04v30.72h15.36v46.08l15.36-15.36 15.36-15.36V58.08h-30.72V42.72h15.36V12h-39.68" class="cls-6" data-name="Trazado 1676" transform="translate(-1045.026 3.36)"/>
                    <path id="Trazado_1677" d="M1146.066 48h-15.36v30.72h7.68" class="cls-6" data-name="Trazado 1677" transform="translate(-1023.185 13.44)"/>
                </g>
                <g id="Grupo_372" data-name="Grupo 372" transform="translate(660.48 463.981)">
                    <circle id="Elipse_99" cx="61.44" cy="61.44" r="61.44" class="cls-6" data-name="Elipse 99"/>
                    <path id="Trazado_1678" d="M474 315.36h23.04v30.72h15.36v46.08l15.36-15.36 15.36-15.36v-15.36H512.4v-15.36h15.36V300h-39.68" class="cls-6" data-name="Trazado 1678" transform="translate(-466.32 -284.64)"/>
                    <path id="Trazado_1679" d="M567.36 336H552v30.72h7.68" class="cls-6" data-name="Trazado 1679" transform="translate(-444.48 -274.56)"/>
                </g>
                <g id="Grupo_373" data-name="Grupo 373" transform="translate(1674.24 341.101)">
                    <circle id="Elipse_100" cx="61.44" cy="61.44" r="61.44" class="cls-4" data-name="Elipse 100"/>
                    <path id="Trazado_1680" d="M1266 219.36h23.04v30.72h15.36v46.08l15.36-15.36 15.36-15.36v-15.36h-30.72v-15.36h15.36V204h-39.68" class="cls-4" data-name="Trazado 1680" transform="translate(-1258.32 -188.64)"/>
                    <path id="Trazado_1681" d="M1359.36 240H1344v30.72h7.68" class="cls-4" data-name="Trazado 1681" transform="translate(-1236.48 -178.56)"/>
                </g>
                <g id="Grupo_374" data-name="Grupo 374" transform="translate(433.543 172.141)">
                    <circle id="Elipse_101" cx="61.44" cy="61.44" r="61.44" class="cls-6" data-name="Elipse 101"/>
                    <path id="Trazado_1682" d="M292.234 131.419l16.292-16.292 21.722 21.722 10.861-10.861 32.583 32.583v-43.443l-10.861-10.861-21.721 21.722-10.861-10.861 10.861-10.861-21.723-21.723-28.058 28.056" class="cls-6" data-name="Trazado 1682" transform="translate(-290.531 -53.688)"/>
                    <path id="Trazado_1683" d="M375.023 74.059L364.161 84.92l21.722 21.722 5.431-5.431" class="cls-6" data-name="Trazado 1683" transform="translate(-270.138 -56.064)"/>
                </g>
                <g id="Grupo_375" data-name="Grupo 375" transform="translate(1244.16 632.941)">
                    <circle id="Elipse_102" cx="61.44" cy="61.44" r="61.44" class="cls-6" data-name="Elipse 102"/>
                    <path id="Trazado_1684" d="M925.529 491.419l16.292-16.292 21.722 21.722 10.857-10.86 32.583 32.583v-43.444l-10.861-10.861-21.722 21.722-10.861-10.861 10.861-10.862-21.722-21.722-28.054 28.056" class="cls-6" data-name="Trazado 1684" transform="translate(-923.825 -413.688)"/>
                    <path id="Trazado_1685" d="M1008.317 434.059l-10.861 10.861 21.722 21.722 5.431-5.431" class="cls-6" data-name="Trazado 1685" transform="translate(-903.432 -416.064)"/>
                </g>
                <g id="Grupo_376" data-name="Grupo 376" transform="translate(1904.64 141.421)">
                    <circle id="Elipse_103" cx="61.44" cy="61.44" r="61.44" class="cls-6" data-name="Elipse 103"/>
                    <path id="Trazado_1686" d="M1441.529 107.419l16.292-16.292 21.722 21.722 10.861-10.861 32.583 32.583V91.128l-10.861-10.861-21.726 21.722-10.861-10.861 10.861-10.862-21.722-21.722-28.054 28.056" class="cls-6" data-name="Trazado 1686" transform="translate(-1439.825 -29.688)"/>
                    <path id="Trazado_1687" d="M1524.317 50.059l-10.861 10.861 21.722 21.722 5.431-5.431" class="cls-6" data-name="Trazado 1687" transform="translate(-1419.432 -32.064)"/>
                </g>
                <g id="Grupo_377" data-name="Grupo 377" transform="translate(215.04 663.661)">
                    <circle id="Elipse_104" cx="61.44" cy="61.44" r="61.44" class="cls-6" data-name="Elipse 104"/>
                    <path id="Trazado_1688" d="M161.212 445.529l16.288 16.292-21.722 21.722 10.864 10.857-32.584 32.584H177.5l10.861-10.861-21.719-21.723 10.858-10.857 10.865 10.857 21.722-21.722-28.058-28.058" class="cls-6" data-name="Trazado 1688" transform="translate(-116.064 -443.825)"/>
                    <path id="Trazado_1689" d="M209.069 528.317l-10.861-10.861-21.722 21.722 5.431 5.431" class="cls-6" data-name="Trazado 1689" transform="translate(-104.184 -423.432)"/>
                </g>
                <g id="Grupo_378" data-name="Grupo 378" transform="translate(1059.84 295.021)">
                    <circle id="Elipse_105" cx="61.44" cy="61.44" r="61.44" class="cls-6" data-name="Elipse 105"/>
                    <path id="Trazado_1690" d="M821.212 157.529l16.288 16.292-21.722 21.722 10.864 10.857-32.583 32.583H837.5l10.861-10.861-21.719-21.722 10.858-10.857 10.865 10.857 21.722-21.722-28.058-28.058" class="cls-6" data-name="Trazado 1690" transform="translate(-776.063 -155.825)"/>
                    <path id="Trazado_1691" d="M869.069 240.317l-10.861-10.861-21.722 21.722 5.431 5.431" class="cls-6" data-name="Trazado 1691" transform="translate(-764.184 -135.432)"/>
                </g>
                <g id="Grupo_379" data-name="Grupo 379" transform="translate(322.56 341.101)">
                    <path id="Trazado_1692" d="M277.44 222.72a30.628 30.628 0 1 0-2.414 11.958 30.632 30.632 0 0 0 2.414-11.958z" class="cls-4" data-name="Trazado 1692" transform="translate(-200.64 -192)"/>
                    <circle id="Elipse_106" cx="11.52" cy="11.52" r="11.52" class="cls-4" data-name="Elipse 106" transform="translate(34.56 19.2)"/>
                    <path id="Trazado_1693" d="M296.16 222.72s-15.36 30.72-46.08 30.72c-30.506 0-46.08-30.72-46.08-30.72S219.36 192 250.08 192s46.08 30.72 46.08 30.72z" class="cls-4" data-name="Trazado 1693" transform="translate(-204 -192)"/>
                </g>
                <g id="Grupo_380" data-name="Grupo 380" transform="translate(1858.56 310.381)">
                    <path id="Trazado_1694" d="M1477.44 198.72a30.628 30.628 0 1 0-2.414 11.958 30.633 30.633 0 0 0 2.414-11.958z" class="cls-4" data-name="Trazado 1694" transform="translate(-1400.64 -168)"/>
                    <circle id="Elipse_107" cx="11.52" cy="11.52" r="11.52" class="cls-4" data-name="Elipse 107" transform="translate(34.56 19.2)"/>
                    <path id="Trazado_1695" d="M1496.16 198.72s-15.36 30.72-46.08 30.72c-30.506 0-46.08-30.72-46.08-30.72s15.36-30.72 46.08-30.72 46.08 30.72 46.08 30.72z" class="cls-4" data-name="Trazado 1695" transform="translate(-1404 -168)"/>
                </g>
                <g id="Grupo_381" data-name="Grupo 381" transform="translate(583.68 632.941)">
                    <path id="Trazado_1696" d="M481.44 450.72a30.628 30.628 0 1 0-2.414 11.958 30.633 30.633 0 0 0 2.414-11.958z" class="cls-4" data-name="Trazado 1696" transform="translate(-404.64 -420)"/>
                    <circle id="Elipse_108" cx="11.52" cy="11.52" r="11.52" class="cls-4" data-name="Elipse 108" transform="translate(34.56 19.2)"/>
                    <path id="Trazado_1697" d="M500.16 450.72s-15.36 30.72-46.08 30.72c-30.506 0-46.08-30.72-46.08-30.72S423.36 420 454.08 420s46.08 30.72 46.08 30.72z" class="cls-4" data-name="Trazado 1697" transform="translate(-408 -420)"/>
                </g>
                <g id="Grupo_382" data-name="Grupo 382" transform="translate(1201.544 64.621)">
                    <path id="Trazado_1698" d="M964.146 6.72a30.633 30.633 0 0 0-2.414-11.958 30.832 30.832 0 0 0-16.348-16.348 30.823 30.823 0 0 0-23.916 0A30.82 30.82 0 0 0 905.12-5.238a30.608 30.608 0 0 0-2.414 11.958 30.608 30.608 0 0 0 2.414 11.958 30.82 30.82 0 0 0 16.348 16.348 30.823 30.823 0 0 0 23.916 0 30.832 30.832 0 0 0 16.348-16.348 30.633 30.633 0 0 0 2.414-11.958z" class="cls-6" data-name="Trazado 1698" transform="translate(-887.346 24)"/>
                    <circle id="Elipse_109" cx="11.52" cy="11.52" r="11.52" class="cls-6" data-name="Elipse 109" transform="translate(34.56 19.2)"/>
                    <path id="Trazado_1699" d="M982.866 6.72s-15.36 30.72-46.08 30.72c-30.508 0-46.08-30.72-46.08-30.72S906.066-24 936.786-24s46.08 30.72 46.08 30.72z" class="cls-6" data-name="Trazado 1699" transform="translate(-890.706 24)"/>
                </g>
                <g id="Grupo_383" data-name="Grupo 383" transform="translate(1013.76 479.341)">
                    <path id="Trazado_1700" d="M800.02 312.575a30.62 30.62 0 1 0 6.748 10.162 30.6 30.6 0 0 0-6.748-10.162z" class="cls-4" data-name="Trazado 1700" transform="translate(-742.998 -298.998)"/>
                    <circle id="Elipse_110" cx="11.52" cy="11.52" r="11.52" class="cls-4" data-name="Elipse 110" transform="translate(23.779 23.779)"/>
                    <path id="Trazado_1701" d="M811.882 302.715s10.861 32.584-10.861 54.307c-21.572 21.571-54.307 10.861-54.307 10.861s-10.861-32.584 10.862-54.305 54.306-10.863 54.306-10.863z" class="cls-4" data-name="Trazado 1701" transform="translate(-744 -300)"/>
                </g>
                <g id="Grupo_384" data-name="Grupo 384" transform="translate(624.122 172.141)">
                    <path id="Trazado_1702" d="M495.571 116.02a30.619 30.619 0 1 0-10.162 6.748 30.616 30.616 0 0 0 10.162-6.748z" class="cls-4" data-name="Trazado 1702" transform="translate(-438.606 -58.998)"/>
                    <circle id="Elipse_111" cx="11.52" cy="11.52" r="11.52" class="cls-4" data-name="Elipse 111" transform="translate(23.722 23.779)"/>
                    <path id="Trazado_1703" d="M507.421 127.882s-32.584 10.861-54.305-10.861c-21.572-21.572-10.861-54.307-10.861-54.307s32.582-10.861 54.305 10.862 10.861 54.306 10.861 54.306z" class="cls-4" data-name="Trazado 1703" transform="translate(-439.596 -60)"/>
                </g>
                <g id="Grupo_385" data-name="Grupo 385" transform="translate(1450.099 648.301)">
                    <path id="Trazado_1704" d="M1140.864 488.02a30.618 30.618 0 1 0-10.162 6.748 30.594 30.594 0 0 0 10.162-6.748z" class="cls-4" data-name="Trazado 1704" transform="translate(-1083.901 -430.998)"/>
                    <circle id="Elipse_112" cx="11.52" cy="11.52" r="11.52" class="cls-4" data-name="Elipse 112" transform="translate(23.722 23.779)"/>
                    <path id="Trazado_1705" d="M1152.716 499.882s-32.584 10.861-54.307-10.861c-21.57-21.572-10.861-54.307-10.861-54.307s32.583-10.861 54.305 10.862 10.863 54.306 10.863 54.306z" class="cls-4" data-name="Trazado 1705" transform="translate(-1084.89 -432)"/>
                </g>
                <g id="Grupo_386" data-name="Grupo 386" transform="translate(46.08 79.981)">
                    <path id="Trazado_1706" d="M43.976 44.02a30.625 30.625 0 1 0-10.163 6.748 30.637 30.637 0 0 0 10.163-6.748z" class="cls-4" data-name="Trazado 1706" transform="translate(12.989 13.002)"/>
                    <circle id="Elipse_113" cx="11.52" cy="11.52" r="11.52" class="cls-4" data-name="Elipse 113" transform="translate(23.722 23.779)"/>
                    <path id="Trazado_1707" d="M55.826 55.882S23.242 66.743 1.519 45.021C-20.051 23.45-9.341-9.285-9.341-9.285S23.242-20.146 44.965 1.577s10.861 54.305 10.861 54.305z" class="cls-4" data-name="Trazado 1707" transform="translate(12 12)"/>
                </g>
                <g id="Grupo_387" data-name="Grupo 387" transform="translate(122.88 371.821)">
                    <rect id="Rectángulo_396" width="46.08" height="92.16" class="cls-6" data-name="Rectángulo 396" rx="6" transform="rotate(-180 61.44 46.08)"/>
                    <rect id="Rectángulo_397" width="76.8" height="61.44" class="cls-6" data-name="Rectángulo 397" rx="6.928" transform="rotate(-180 38.4 38.4)"/>
                    <rect id="Rectángulo_398" width="53.76" height="38.4" class="cls-6" data-name="Rectángulo 398" rx="4.583" transform="rotate(-180 32.64 32.64)"/>
                    <path id="Trazado_1708" d="M87.36 291.36H72L79.68 276z" class="cls-6" data-name="Trazado 1708" transform="translate(-41.28 -199.2)"/>
                    <path id="Línea_28" d="M15.36 0H0" class="cls-6" data-name="Línea 28" transform="translate(92.16 30.72)"/>
                </g>
                <g id="Grupo_388" data-name="Grupo 388" transform="translate(33.355 479.341)">
                    <circle id="Elipse_114" cx="30.72" cy="30.72" r="30.72" class="cls-4" data-name="Elipse 114" transform="translate(0 22.681)"/>
                    <path id="Línea_29" d="M0 0l10.861 10.861" class="cls-4" data-name="Línea 29" transform="translate(63.303 85.984)"/>
                    <path id="Línea_30" d="M0 21.722L21.722 0" class="cls-4" data-name="Línea 30" transform="translate(52.442 75.123)"/>
                    <path id="Trazado_1709" d="M-5.719 310.861L5.142 300 16 310.861" class="cls-4" data-name="Trazado 1709" transform="translate(26.483 -300)"/>
                </g>
                <g id="Grupo_389" data-name="Grupo 389" transform="translate(924.235 248.941)">
                    <circle id="Elipse_115" cx="30.72" cy="30.72" r="30.72" class="cls-4" data-name="Elipse 115" transform="translate(0 22.681)"/>
                    <path id="Línea_31" d="M0 0l10.861 10.861" class="cls-4" data-name="Línea 31" transform="translate(63.303 85.984)"/>
                    <path id="Línea_32" d="M0 21.722L21.722 0" class="cls-4" data-name="Línea 32" transform="translate(52.442 75.123)"/>
                    <path id="Trazado_1710" d="M690.281 130.861L701.142 120 712 130.861" class="cls-4" data-name="Trazado 1710" transform="translate(-669.517 -120)"/>
                </g>
                <g id="Grupo_390" data-name="Grupo 390" transform="translate(1520.64 387.181)">
                    <circle id="Elipse_116" cx="30.72" cy="30.72" r="30.72" class="cls-4" data-name="Elipse 116" transform="translate(0 22.681)"/>
                    <path id="Línea_33" d="M0 0l10.861 10.861" class="cls-4" data-name="Línea 33" transform="translate(63.303 85.984)"/>
                    <path id="Línea_34" d="M0 21.722L21.722 0" class="cls-4" data-name="Línea 34" transform="translate(52.442 75.123)"/>
                    <path id="Trazado_1711" d="M1156.222 238.861L1167.083 228l10.861 10.861" class="cls-4" data-name="Trazado 1711" transform="translate(-1135.458 -228)"/>
                </g>
                <g id="Grupo_391" data-name="Grupo 391" transform="translate(737.28 681.657)">
                    <circle id="Elipse_117" cx="30.72" cy="30.72" r="30.72" class="cls-4" data-name="Elipse 117" transform="translate(12.725)"/>
                    <path id="Línea_35" d="M10.861 0L0 10.861" class="cls-4" data-name="Línea 35" transform="translate(0 63.303)"/>
                    <path id="Línea_36" d="M0 0l21.722 21.722" class="cls-4" data-name="Línea 36" transform="translate(0 52.442)"/>
                    <path id="Trazado_1712" d="M595.175 474.281l10.861 10.861L595.175 496" class="cls-4" data-name="Trazado 1712" transform="translate(-509.191 -453.517)"/>
                </g>
                <g id="Grupo_392" data-name="Grupo 392" transform="translate(491.52 341.101)">
                    <circle id="Elipse_118" cx="30.72" cy="30.72" r="30.72" class="cls-4" data-name="Elipse 118" transform="translate(12.725)"/>
                    <path id="Línea_37" d="M10.861 0L0 10.861" class="cls-4" data-name="Línea 37" transform="translate(0 63.303)"/>
                    <path id="Línea_38" d="M0 0l21.722 21.722" class="cls-4" data-name="Línea 38" transform="translate(0 52.442)"/>
                    <path id="Trazado_1713" d="M403.175 208.222l10.861 10.861-10.861 10.861" class="cls-4" data-name="Trazado 1713" transform="translate(-317.191 -187.458)"/>
                </g>
                <g id="Grupo_393" data-name="Grupo 393" transform="translate(1889.28 442.221)">
                    <circle id="Elipse_119" cx="30.72" cy="30.72" r="30.72" class="cls-4" data-name="Elipse 119" transform="translate(0 6.4)"/>
                    <path id="Línea_39" d="M0 0v15.36" class="cls-4" data-name="Línea 39" transform="translate(30.72 83.2)"/>
                    <path id="Línea_40" d="M0 0h30.72" class="cls-4" data-name="Línea 40" transform="translate(15.36 83.2)"/>
                    <path id="Trazado_1714" d="M1470 271h15.36v15.36" class="cls-4" data-name="Trazado 1714" transform="translate(-1416.24 -271)"/>
                </g>
                <g id="Grupo_394" data-name="Grupo 394" transform="translate(1596.218 95.341)">
                    <circle id="Elipse_120" cx="30.72" cy="30.72" r="30.72" class="cls-4" data-name="Elipse 120" transform="translate(12.725)"/>
                    <path id="Línea_41" d="M10.861 0L0 10.861" class="cls-4" data-name="Línea 41" transform="translate(0 63.303)"/>
                    <path id="Línea_42" d="M0 0l21.722 21.722" class="cls-4" data-name="Línea 42" transform="translate(0 52.442)"/>
                    <path id="Trazado_1715" d="M1266.22 16.222l10.861 10.861-10.861 10.861" class="cls-4" data-name="Trazado 1715" transform="translate(-1180.236 4.542)"/>
                </g>
                <g id="Trazado_1716" class="cls-5" data-name="Trazado 1716">
                    <path d="M163 372.366a28.067 28.067 0 0 0-20.468 8.869 39.672 39.672 0 0 0-1.422-32.265L134.629 336l-6.486 12.97a39.672 39.672 0 0 0-1.422 32.265 28.064 28.064 0 0 0-20.467-8.869H96l6.153 8.2a28.058 28.058 0 0 0 20.707 11.169 21.052 21.052 0 0 0-8.838 11.206l-2.432 7.3 7.3-2.432a21.024 21.024 0 0 0 11.9-10.115v11.266a3.84 3.84 0 0 0 7.68 0v-11.267a21.024 21.024 0 0 0 11.9 10.115l7.3 2.432-2.432-7.3a21.052 21.052 0 0 0-8.838-11.206 28.061 28.061 0 0 0 20.707-11.169l6.152-8.2z" class="cls-7" transform="translate(88.32 189.421)"/>
                    <path d="M134.63 336l-6.487 12.97a39.672 39.672 0 0 0-1.422 32.265 28.064 28.064 0 0 0-20.467-8.869H96l6.153 8.202a28.058 28.058 0 0 0 20.707 11.17 21.052 21.052 0 0 0-8.839 11.206l-2.432 7.296 7.296-2.432c5.167-1.723 9.39-5.381 11.904-10.115v11.267a3.84 3.84 0 1 0 7.68 0v-11.267c2.514 4.734 6.737 8.392 11.904 10.115l7.296 2.432-2.432-7.296a21.052 21.052 0 0 0-8.838-11.206 28.06 28.06 0 0 0 20.706-11.17l6.152-8.202h-10.253c-7.8 0-15.193 3.246-20.468 8.87a39.672 39.672 0 0 0-1.422-32.266L134.629 336m0-8.944l3.578 7.155 6.484 12.97a43.67 43.67 0 0 1 3.229 8.636 43.71 43.71 0 0 1 1.1 15.762 31.854 31.854 0 0 1 13.984-3.212h18.253l-4.8 6.4-6.152 8.201a32.106 32.106 0 0 1-4.769 5.094 32.112 32.112 0 0 1-10.598 6.036 25.045 25.045 0 0 1 4.094 7.58l2.432 7.297 2.53 7.59-7.59-2.53-7.296-2.432a24.711 24.711 0 0 1-6.639-3.394v.751c0 4.323-3.517 7.84-7.84 7.84s-7.84-3.517-7.84-7.84v-.75a24.71 24.71 0 0 1-6.639 3.393l-7.296 2.432-7.59 2.53 2.53-7.59 2.432-7.296a25.046 25.046 0 0 1 4.094-7.58 32.108 32.108 0 0 1-10.599-6.037 32.093 32.093 0 0 1-4.768-5.094l-6.153-8.202-4.801-6.4h18.255a31.852 31.852 0 0 1 13.983 3.212 43.712 43.712 0 0 1 1.1-15.761 43.67 43.67 0 0 1 3.229-8.636l6.485-12.97 3.578-7.155z" class="cls-8" transform="translate(88.32 189.421)"/>
                </g>
                <g id="Trazado_1717" class="cls-5" data-name="Trazado 1717">
                    <path d="M729.709.366a28.064 28.064 0 0 0-20.467 8.869 39.672 39.672 0 0 0-1.422-32.265L701.334-36l-6.484 12.97a39.673 39.673 0 0 0-1.422 32.265A28.068 28.068 0 0 0 672.959.366h-10.253l6.152 8.2a28.061 28.061 0 0 0 20.708 11.169 21.049 21.049 0 0 0-8.84 11.206l-2.432 7.3 7.3-2.432a21.025 21.025 0 0 0 11.9-10.115V36.96a3.84 3.84 0 0 0 7.68 0V25.693a21.028 21.028 0 0 0 11.9 10.115l7.3 2.432-2.432-7.3a21.052 21.052 0 0 0-8.842-11.202 28.058 28.058 0 0 0 20.71-11.17l6.153-8.2z" class="cls-7" transform="translate(246.998 85.261)"/>
                    <path d="M701.334-36l-6.485 12.97a39.673 39.673 0 0 0-1.422 32.265A28.068 28.068 0 0 0 672.96.366h-10.253l6.152 8.202a28.061 28.061 0 0 0 20.708 11.17 21.049 21.049 0 0 0-8.84 11.206l-2.432 7.296 7.297-2.432c5.166-1.723 9.389-5.381 11.903-10.115V36.96a3.84 3.84 0 0 0 7.68 0V25.693c2.514 4.734 6.738 8.392 11.904 10.115l7.296 2.432-2.432-7.296a21.052 21.052 0 0 0-8.839-11.206 28.058 28.058 0 0 0 20.707-11.17l6.153-8.202h-10.254c-7.8 0-15.194 3.246-20.467 8.87a39.672 39.672 0 0 0-1.422-32.266L701.334-36m0-8.944l3.577 7.155 6.486 12.97a43.668 43.668 0 0 1 3.229 8.636 43.708 43.708 0 0 1 1.1 15.761c.398-.192.8-.377 1.207-.554a31.852 31.852 0 0 1 12.776-2.658H747.963l-4.8 6.4-6.153 8.203a32.092 32.092 0 0 1-4.769 5.093 32.107 32.107 0 0 1-10.598 6.037 25.046 25.046 0 0 1 4.093 7.58l2.433 7.296 2.53 7.59-7.59-2.53-7.296-2.432a24.715 24.715 0 0 1-6.64-3.394v.751c0 4.323-3.516 7.84-7.84 7.84-4.322 0-7.84-3.517-7.84-7.84v-.75a24.708 24.708 0 0 1-6.636 3.393l-7.299 2.432-7.589 2.529 2.53-7.589 2.432-7.296a25.04 25.04 0 0 1 4.092-7.577 32.012 32.012 0 0 1-15.365-11.134l-6.152-8.202-4.8-6.4h18.253A31.853 31.853 0 0 1 686.943-.42a43.712 43.712 0 0 1 1.1-15.762 43.67 43.67 0 0 1 3.229-8.636l6.484-12.97 3.577-7.155z" class="cls-8" transform="translate(246.998 85.261)"/>
                </g>
                <g id="Trazado_1718" class="cls-5" data-name="Trazado 1718">
                    <path d="M395.379 312.26a28.064 28.064 0 0 0-8.2 20.745 39.671 39.671 0 0 0-23.822-21.805l-13.757-4.59 4.586 13.757a39.675 39.675 0 0 0 21.809 23.821 28.058 28.058 0 0 0-20.745 8.2l-7.25 7.251 10.152 1.45a28.069 28.069 0 0 0 22.54-6.744 21.047 21.047 0 0 0 1.673 14.173l3.435 6.882 3.439-6.879a21.021 21.021 0 0 0 1.265-15.569l7.967 7.965a3.84 3.84 0 0 0 5.431-5.43l-7.967-7.967a21.021 21.021 0 0 0 15.569-1.266l6.879-3.439-6.879-3.439a21.053 21.053 0 0 0-14.173-1.674 28.057 28.057 0 0 0 6.744-22.54l-1.45-10.15z" class="cls-7" transform="translate(158.88 180.744)"/>
                    <path d="M402.63 305.01l-7.25 7.25a28.064 28.064 0 0 0-8.202 20.745 39.671 39.671 0 0 0-23.82-21.809L349.6 306.61l4.586 13.757a39.675 39.675 0 0 0 21.809 23.821 28.055 28.055 0 0 0-20.745 8.2l-7.25 7.251 10.152 1.45a28.064 28.064 0 0 0 22.54-6.744 21.047 21.047 0 0 0 1.672 14.174l3.44 6.878 3.44-6.878c2.436-4.872 2.834-10.445 1.265-15.57l7.966 7.966a3.828 3.828 0 0 0 2.716 1.125 3.84 3.84 0 0 0 2.716-6.555l-7.967-7.966c2.028.621 4.127.934 6.225.934 3.201 0 6.4-.729 9.343-2.2l6.88-3.44-6.88-3.439a21.034 21.034 0 0 0-14.173-1.674 28.057 28.057 0 0 0 6.744-22.54l-1.45-10.15m2.828-8.485l1.132 7.92 1.45 10.15c.33 2.306.407 4.652.23 6.974a32.107 32.107 0 0 1-3.225 11.76 25.175 25.175 0 0 1 8.253 2.467l6.879 3.44 7.155 3.578-7.155 3.577-6.879 3.44a24.94 24.94 0 0 1-7.097 2.291l.535.535a7.788 7.788 0 0 1 2.296 5.543 7.788 7.788 0 0 1-2.296 5.544 7.79 7.79 0 0 1-5.544 2.296 7.79 7.79 0 0 1-5.544-2.296l-.53-.53a24.7 24.7 0 0 1-2.295 7.093l-3.44 6.88-3.577 7.153-3.578-7.153-3.44-6.88a25.06 25.06 0 0 1-2.465-8.253 32.043 32.043 0 0 1-18.736 2.995l-10.152-1.45-7.918-1.131 5.655-5.657 7.25-7.251a31.872 31.872 0 0 1 10.441-6.965c.569-.234 1.141-.451 1.718-.652a43.713 43.713 0 0 1-10.366-11.922 43.655 43.655 0 0 1-3.823-8.389l-4.586-13.757-2.53-7.59 7.59 2.53 13.757 4.587a43.66 43.66 0 0 1 8.389 3.822 43.707 43.707 0 0 1 11.923 10.367c.145-.417.3-.832.462-1.246a31.85 31.85 0 0 1 7.155-10.914l7.25-7.25 5.656-5.656z" class="cls-8" transform="translate(158.88 180.744)"/>
                </g>
                <g id="Trazado_1719" class="cls-5" data-name="Trazado 1719">
                    <path d="M967 288.366a28.067 28.067 0 0 0-20.468 8.869 39.673 39.673 0 0 0-1.422-32.265L938.629 252l-6.486 12.97a39.673 39.673 0 0 0-1.422 32.265 28.064 28.064 0 0 0-20.467-8.869H900l6.153 8.2a28.059 28.059 0 0 0 20.707 11.169 21.052 21.052 0 0 0-8.838 11.206l-2.432 7.3 7.3-2.432a21.024 21.024 0 0 0 11.9-10.115v11.266a3.84 3.84 0 0 0 7.68 0v-11.267a21.023 21.023 0 0 0 11.9 10.115l7.3 2.432-2.432-7.3a21.053 21.053 0 0 0-8.838-11.206 28.061 28.061 0 0 0 20.707-11.169l6.152-8.2z" class="cls-7" transform="translate(313.44 165.901)"/>
                    <path d="M938.63 252l-6.487 12.97a39.673 39.673 0 0 0-1.422 32.265 28.064 28.064 0 0 0-20.467-8.869H900l6.153 8.202a28.059 28.059 0 0 0 20.707 11.17 21.052 21.052 0 0 0-8.839 11.206l-2.432 7.296 7.296-2.432c5.168-1.723 9.39-5.381 11.904-10.115v11.267a3.84 3.84 0 1 0 7.68 0v-11.267c2.514 4.734 6.737 8.392 11.904 10.115l7.296 2.432-2.432-7.296a21.053 21.053 0 0 0-8.838-11.206 28.06 28.06 0 0 0 20.706-11.17l6.152-8.202h-10.253c-7.8 0-15.193 3.246-20.468 8.87a39.673 39.673 0 0 0-1.422-32.266L938.629 252m0-8.944l3.578 7.155 6.484 12.97a43.67 43.67 0 0 1 3.229 8.636 43.708 43.708 0 0 1 1.1 15.762 31.853 31.853 0 0 1 13.984-3.212h18.253l-4.8 6.4-6.152 8.201a32.102 32.102 0 0 1-4.769 5.094 32.115 32.115 0 0 1-10.598 6.037 25.047 25.047 0 0 1 4.094 7.58l2.432 7.296 2.53 7.59-7.59-2.53-7.296-2.432a24.71 24.71 0 0 1-6.639-3.394v.751c0 4.323-3.517 7.84-7.84 7.84s-7.84-3.517-7.84-7.84v-.75a24.71 24.71 0 0 1-6.639 3.393l-7.296 2.432-7.59 2.53 2.53-7.59 2.432-7.296a25.046 25.046 0 0 1 4.094-7.58 32.107 32.107 0 0 1-10.599-6.037 32.094 32.094 0 0 1-4.768-5.094l-6.153-8.202-4.801-6.4h18.255a31.852 31.852 0 0 1 13.983 3.212 43.712 43.712 0 0 1 1.1-15.761 43.67 43.67 0 0 1 3.229-8.636l6.485-12.97 3.578-7.155z" class="cls-8" transform="translate(313.44 165.901)"/>
                </g>
                <g id="Grupo_396" data-name="Grupo 396" transform="translate(322.56 463.981)">
                    <g id="Grupo_395" data-name="Grupo 395" transform="translate(2.058)">
                        <path id="Trazado_1720" d="M284.691 359.2l14.78-25.6-14.78-25.6h-29.56l-14.78 25.6 14.78 25.6z" class="cls-4" data-name="Trazado 1720" transform="translate(-195.879 -282.4)"/>
                        <path id="Trazado_1721" d="M249.948 339.2l14.78-25.6-14.78-25.6h-29.56l-14.78 25.6 14.78 25.6z" class="cls-4" data-name="Trazado 1721" transform="translate(-205.607 -288)"/>
                    </g>
                    <path id="Línea_43" d="M0 17.821L17.821 0" class="cls-4" data-name="Línea 43" transform="translate(0 51.2)"/>
                    <path id="Línea_44" d="M0 17.821L17.821 0" class="cls-4" data-name="Línea 44" transform="translate(91.259 7.779)"/>
                </g>
                <g id="Grupo_398" data-name="Grupo 398" transform="translate(1350.12 494.701)">
                    <g id="Grupo_397" data-name="Grupo 397" transform="translate(2.058)">
                        <path id="Trazado_1722" d="M1087.473 383.2l14.78-25.6-14.78-25.6h-29.56l-14.78 25.6 14.78 25.6z" class="cls-6" data-name="Trazado 1722" transform="translate(-998.661 -306.4)"/>
                        <path id="Trazado_1723" d="M1052.729 363.2l14.78-25.6-14.78-25.6h-29.561l-14.78 25.6 14.78 25.6z" class="cls-6" data-name="Trazado 1723" transform="translate(-1008.389 -312)"/>
                    </g>
                    <path id="Línea_45" d="M0 17.821L17.821 0" class="cls-6" data-name="Línea 45" transform="translate(0 51.2)"/>
                    <path id="Línea_46" d="M0 17.821L17.821 0" class="cls-6" data-name="Línea 46" transform="translate(91.259 7.779)"/>
                </g>
                <g id="Grupo_400" data-name="Grupo 400" transform="translate(61.44 662.101)">
                    <g id="Grupo_399" data-name="Grupo 399" transform="translate(0 3.43)">
                        <path id="Trazado_1724" d="M0 460.241l25.6-14.78 25.6 14.78V489.8l-25.6 14.78L0 489.8z" class="cls-4" data-name="Trazado 1724" transform="translate(0 -445.461)"/>
                        <path id="Trazado_1725" d="M20 494.985L45.6 480.2l25.6 14.78v29.56l-25.6 14.78L20 524.545z" class="cls-4" data-name="Trazado 1725" transform="translate(5.6 -435.733)"/>
                    </g>
                    <path id="Línea_47" d="M0 17.821L17.821 0" class="cls-4" data-name="Línea 47" transform="translate(7.779 91.259)"/>
                    <path id="Línea_48" d="M0 17.821L17.821 0" class="cls-4" data-name="Línea 48" transform="translate(51.2)"/>
                </g>
                <g id="Grupo_402" data-name="Grupo 402" transform="translate(1889.28 631.381)">
                    <g id="Grupo_401" data-name="Grupo 401" transform="translate(0 3.43)">
                        <path id="Trazado_1726" d="M1428 436.241l25.6-14.78 25.6 14.78V465.8l-25.6 14.78-25.6-14.78z" class="cls-4" data-name="Trazado 1726" transform="translate(-1428 -421.461)"/>
                        <path id="Trazado_1727" d="M1448 470.985l25.6-14.78 25.6 14.78v29.56l-25.6 14.78-25.6-14.78z" class="cls-4" data-name="Trazado 1727" transform="translate(-1422.4 -411.733)"/>
                    </g>
                    <path id="Línea_49" d="M0 17.821L17.821 0" class="cls-4" data-name="Línea 49" transform="translate(7.779 91.259)"/>
                    <path id="Línea_50" d="M0 17.821L17.821 0" class="cls-4" data-name="Línea 50" transform="translate(51.2)"/>
                </g>
                <g id="Grupo_404" data-name="Grupo 404" transform="translate(829.44 541.647)">
                    <g id="Grupo_403" data-name="Grupo 403" transform="translate(24.508)">
                        <path id="Trazado_1728" d="M650.474 348.676l28.553 7.651 7.651 28.553-20.9 20.9-28.553-7.651-7.651-28.553z" class="cls-6" data-name="Trazado 1728" transform="translate(-616.228 -348.676)"/>
                        <path id="Trazado_1729" d="M640.049 387.386l28.553 7.651 7.651 28.553-20.9 20.9-28.553-7.649-7.651-28.553z" class="cls-6" data-name="Trazado 1729" transform="translate(-619.146 -337.838)"/>
                    </g>
                    <path id="Línea_51" d="M0 0h25.203" class="cls-6" data-name="Línea 51" transform="translate(0 69.755)"/>
                    <path id="Línea_52" d="M0 0h25.203" class="cls-6" data-name="Línea 52" transform="translate(95.233 35.929)"/>
                </g>
                <g id="Grupo_405" data-name="Grupo 405" transform="translate(506.88 33.901)">
                    <rect id="Rectángulo_399" width="46.08" height="92.16" class="cls-6" data-name="Rectángulo 399" rx="6"/>
                    <rect id="Rectángulo_400" width="76.8" height="61.44" class="cls-6" data-name="Rectángulo 400" rx="6.928" transform="translate(46.08 15.36)"/>
                    <rect id="Rectángulo_401" width="53.76" height="38.4" class="cls-6" data-name="Rectángulo 401" rx="4.583" transform="translate(57.6 26.88)"/>
                    <path id="Trazado_1730" d="M408 27.36h15.36L415.68 12z" class="cls-6" data-name="Trazado 1730" transform="translate(-331.2 64.8)"/>
                    <path id="Línea_53" d="M0 0h15.36" class="cls-6" data-name="Línea 53" transform="translate(15.36 30.72)"/>
                </g>
                <g id="Grupo_406" data-name="Grupo 406" transform="translate(1336.32 295.021)">
                    <rect id="Rectángulo_402" width="46.08" height="92.16" class="cls-6" data-name="Rectángulo 402" rx="6" transform="rotate(-180 61.44 46.08)"/>
                    <rect id="Rectángulo_403" width="76.8" height="61.44" class="cls-6" data-name="Rectángulo 403" rx="6.928" transform="rotate(-180 38.4 38.4)"/>
                    <rect id="Rectángulo_404" width="53.76" height="38.4" class="cls-6" data-name="Rectángulo 404" rx="4.583" transform="rotate(-180 32.64 32.64)"/>
                    <path id="Trazado_1731" d="M1035.36 231.36H1020l7.68-15.36z" class="cls-6" data-name="Trazado 1731" transform="translate(-989.28 -139.2)"/>
                    <path id="Línea_54" d="M15.36 0H0" class="cls-6" data-name="Línea 54" transform="translate(92.16 30.72)"/>
                </g>
                <g id="Grupo_407" data-name="Grupo 407" transform="translate(1014.042 107.028)">
                    <rect id="Rectángulo_405" width="46.08" height="92.16" class="cls-6" data-name="Rectángulo 405" rx="6" transform="rotate(-45 91.774 38.014)"/>
                    <rect id="Rectángulo_406" width="76.8" height="61.44" class="cls-6" data-name="Rectángulo 406" rx="6.928" transform="rotate(-45 87.276 -25.29)"/>
                    <rect id="Rectángulo_407" width="53.76" height="38.4" class="cls-6" data-name="Rectángulo 407" rx="4.583" transform="rotate(-45 95.421 -44.955)"/>
                    <path id="Trazado_1732" d="M838.746 80.576l10.861-10.861-16.292-5.431z" class="cls-6" data-name="Trazado 1732" transform="translate(-719.274 6.313)"/>
                    <path id="Línea_55" d="M0 10.861L10.861 0" class="cls-6" data-name="Línea 55" transform="translate(32.584 76.028)"/>
                </g>
                <g id="Grupo_408" data-name="Grupo 408" transform="translate(675.84 310.381)">
                    <rect id="Rectángulo_408" width="46.08" height="92.16" class="cls-6" data-name="Rectángulo 408" rx="6"/>
                    <rect id="Rectángulo_409" width="76.8" height="61.44" class="cls-6" data-name="Rectángulo 409" rx="6.928" transform="translate(46.08 15.36)"/>
                    <rect id="Rectángulo_410" width="53.76" height="38.4" class="cls-6" data-name="Rectángulo 410" rx="4.583" transform="translate(57.6 26.88)"/>
                    <path id="Trazado_1733" d="M540 243.36h15.36L547.68 228z" class="cls-6" data-name="Trazado 1733" transform="translate(-463.2 -151.2)"/>
                    <path id="Línea_56" d="M0 0h15.36" class="cls-6" data-name="Línea 56" transform="translate(15.36 30.72)"/>
                </g>
                <g id="Grupo_409" data-name="Grupo 409" transform="translate(384.718 587.579)">
                    <rect id="Rectángulo_411" width="46.08" height="92.16" class="cls-6" data-name="Rectángulo 411" rx="6" transform="rotate(45 32.584 78.664)"/>
                    <rect id="Rectángulo_412" width="76.8" height="61.44" class="cls-6" data-name="Rectángulo 412" rx="6.928" transform="rotate(45 -8.998 126.607)"/>
                    <rect id="Rectángulo_413" width="53.76" height="38.4" class="cls-6" data-name="Rectángulo 413" rx="4.583" transform="rotate(45 -28.663 134.752)"/>
                    <path id="Trazado_1734" d="M294.988 479.087l10.861 10.861 5.431-16.292z" class="cls-6" data-name="Trazado 1734" transform="translate(-240.682 -359.614)"/>
                    <path id="Línea_57" d="M0 0l10.861 10.861" class="cls-6" data-name="Línea 57" transform="translate(54.306 32.583)"/>
                </g>
                <g id="Grupo_410" data-name="Grupo 410" transform="translate(1735.962)">
                    <rect id="Rectángulo_414" width="46.08" height="92.16" class="cls-6" data-name="Rectángulo 414" rx="6" transform="rotate(45 32.584 78.664)"/>
                    <rect id="Rectángulo_415" width="76.8" height="61.44" class="cls-6" data-name="Rectángulo 415" rx="6.928" transform="rotate(45 -8.998 126.607)"/>
                    <rect id="Rectángulo_416" width="53.76" height="38.4" class="cls-6" data-name="Rectángulo 416" rx="4.583" transform="rotate(45 -28.663 134.752)"/>
                    <path id="Trazado_1735" d="M1350.647 20.041l10.861 10.859 5.43-16.292z" class="cls-6" data-name="Trazado 1735" transform="translate(-1296.341 99.432)"/>
                    <path id="Línea_58" d="M0 0l10.861 10.861" class="cls-6" data-name="Línea 58" transform="translate(54.306 32.584)"/>
                </g>
                <g id="Grupo_411" data-name="Grupo 411" transform="translate(1552.078 521.748)">
                    <rect id="Rectángulo_417" width="46.08" height="92.16" class="cls-6" data-name="Rectángulo 417" rx="6" transform="rotate(-45 91.774 38.014)"/>
                    <rect id="Rectángulo_418" width="76.8" height="61.44" class="cls-6" data-name="Rectángulo 418" rx="6.928" transform="rotate(-45 87.276 -25.29)"/>
                    <rect id="Rectángulo_419" width="53.76" height="38.4" class="cls-6" data-name="Rectángulo 419" rx="4.583" transform="rotate(-45 95.421 -44.955)"/>
                    <path id="Trazado_1736" d="M1259.087 404.576l10.861-10.861-16.292-5.431z" class="cls-6" data-name="Trazado 1736" transform="translate(-1139.615 -317.687)"/>
                    <path id="Línea_59" d="M0 10.861L10.861 0" class="cls-6" data-name="Línea 59" transform="translate(32.583 76.028)"/>
                </g>
                <g id="Grupo_412" data-name="Grupo 412" transform="translate(967.626 659.708)">
                    <rect id="Rectángulo_420" width="46.08" height="92.16" class="cls-6" data-name="Rectángulo 420" rx="6" transform="rotate(-180 61.44 46.08)"/>
                    <rect id="Rectángulo_421" width="76.8" height="61.44" class="cls-6" data-name="Rectángulo 421" rx="6.928" transform="rotate(-180 38.4 38.4)"/>
                    <rect id="Rectángulo_422" width="53.76" height="38.4" class="cls-6" data-name="Rectángulo 422" rx="4.583" transform="rotate(-180 32.64 32.64)"/>
                    <path id="Trazado_1737" d="M747.318 516.272h-15.36l7.68-15.36z" class="cls-6" data-name="Trazado 1737" transform="translate(-701.238 -424.112)"/>
                    <path id="Línea_60" d="M15.36 0H0" class="cls-6" data-name="Línea 60" transform="translate(92.16 30.72)"/>
                </g>
            </g>
        </g>
    </g>
</svg>
